<?xml version="1.0" encoding="utf-8"?>
<!-- Generator: Adobe Illustrator 24.0.0, SVG Export Plug-In . SVG Version: 6.00 Build 0)  -->
<svg version="1.1" id="Layer_1" xmlns="http://www.w3.org/2000/svg" xmlns:xlink="http://www.w3.org/1999/xlink" x="0px" y="0px"
	 viewBox="0 0 72.6 104.4" enable-background="new 0 0 72.6 104.4" xml:space="preserve">
<g>
	<g>
		<path fill="#70B644" d="M45.2,34.4c-0.6,1.6-2.1,2.7-3.8,2.8c-5.7,0.2-17.1,0.9-15.9-0.7c2.1-2.9,4-4.8,5.4-6.2
			c2.8-2.8,6.5-7.5,9.5-8.2c3.2-0.8,7.3-0.4,10.6-0.6c-0.6,0.8-1,1.7-1.4,2.6c-0.7,1.5-1.3,2.9-2,4.4C46.8,30.4,45.9,32.4,45.2,34.4
			 M25.1,35.1c1.2-1.7,2.6-3.3,4-4.8c1.5-1.7,3.1-3.3,4.7-4.8c0.9-0.8,1.8-1.7,2.8-2.5c-8.7,1.6-17,4.6-23.9,9.6
			c-2,2.6,2.1,3.9,8.6,4.4C22.7,37.1,24.1,36.5,25.1,35.1C25.1,35.2,25.1,35.2,25.1,35.1 M64.7,22.4c0-1.2-0.9-1.1-1.6-1.1
			c-2-0.1-3.9-0.1-5.9,0c-1.3,0-3.2-0.2-4.4,0.3c-0.9,0.4-1.5,2.2-2.2,3.5c-0.8,1.4-3,7.2-3.7,8.9c-0.6,1.3-0.2,2.7,1.2,2.6
			c5.5-0.2,11.8-0.2,12.1-0.2c1.4-0.1,2.8-1.2,3-2.6C63.2,32.5,64.6,24.9,64.7,22.4 M71.7,21.6c-0.9-0.1-1.9-0.2-2.8-0.2
			c-0.8,0-1.6,0-2.4,0c0,3-0.8,6.1-1.2,9.1c-0.1,1.2-0.3,2.3-0.6,3.5c-0.2,1,0.8,1.9,1.8,1.6C71.1,34,71,30.6,72,27
			C72.9,23.5,72.7,22.3,71.7,21.6"/>
		<path fill="#8EC7A6" d="M2.2,28.5c0.5-1.3,1.3,0.5,2.2,0.2c1-0.3,1.2-0.7,2.4-0.7c1.2,0,1.1,0.4,2.1,0.1c1-0.2,1.6-0.5,2.9-0.4
			c1.2,0.1,1.3-0.2,1.8,0c0.5,0.3,1.4,0.2,1.3,0.5c-0.1,0.3-6.2,3.6-8,5.7C5,36.1,1.3,30.6,2.2,28.5"/>
		<path fill="#245C2E" d="M15.5,28c-1,0.1-1.8-0.6-2.7-0.7c-0.6-0.1-1.2,0.1-1.8,0.2c-1,0.2-1.7,0.5-2.7,0.2c-0.6-0.2-1.1-0.2-1.7,0
			c-0.3,0.1-0.6,0.3-0.9,0.4c-0.4,0.2-0.5,0.3-0.8,0.2c-0.1,0-0.4-0.3-0.5-0.3c-0.2-0.1-0.5-0.1-0.7-0.1c-0.6,0-1.3,0.1-1.9,0.3
			c-0.7,0.1-1.4,0.1-1.8,0.7C-0.1,28.8,0,29,0.1,29c1.2,0.7,2.9-0.8,4.1,0c0.3,0.2,0.5,0.4,1,0.4c0.7-0.1,1.2-0.7,1.9-0.8
			c0.7-0.1,1.3,0.3,2.1,0.2c0.7-0.1,1.4-0.4,2.1-0.6c1-0.3,1.8-0.3,2.7,0C14.7,28.4,15,28.4,15.5,28C15.6,28.1,15.6,28,15.5,28"/>
		<g>
			<path fill="#11B3E8" d="M43.4,15.2c-0.3-0.7-0.6-1.4-1-2.1l2.2-2.3c0-0.3-0.1-0.6-0.1-0.9c0-0.1,0-0.2,0-0.2L42,6.8l-3.1,2.3
				c-0.6-0.5-1.2-0.9-1.9-1.3l1-3.8l-4.4-1.5L32,6.1C31.3,6,30.5,6,29.7,6l-1-3.7l-4.5,0.9L24.6,7c-0.7,0.3-1.4,0.6-2.1,1l-2.8-2.7
				l-3.5,3l2.3,3.1c-0.5,0.6-0.9,1.2-1.3,1.9l-3.8-1L12,16.8l3.6,1.6c-0.1,0.8-0.2,1.5-0.2,2.3l-3.7,1l0.9,4.5l3.9-0.4
				c0.2,0.4,0.4,0.9,0.6,1.3c0.9-0.4,1.9-0.9,2.9-1.4c-0.5-1-0.9-2-1.1-3.1c-1.2-6.1,2.8-12,8.9-13.2c2.9-0.6,5.9,0,8.4,1.7
				c2.5,1.7,4.2,4.2,4.8,7.2c0.1,0.5,0.2,1,0.2,1.6c0.7-0.1,1.3-0.1,2-0.2c0.5,0,1-0.1,1.5-0.1c0-0.1-0.1-0.2,0-0.4
				c0.1-1.4,0.1-2.8,0.1-4.2L43.4,15.2z"/>
			<path fill="#F9B717" d="M39.1,18.7c-0.5-2.5-1.9-4.6-4-6c-1.6-1.1-3.6-1.7-5.5-1.6c-0.5,0-1,0.1-1.6,0.2c-5.1,1-8.4,5.9-7.5,11.1
				c0.2,1,0.5,1.9,1,2.7c4.8-2,10.7-3.9,17.3-4.8c0.1,0,0.2-0.1,0.4-0.1C39.3,19.6,39.2,19.1,39.1,18.7z"/>
			<path fill="#FFFFFF" d="M36.2,11.1c-2.5-1.7-5.5-2.3-8.4-1.7c-6.1,1.2-10.1,7.1-8.9,13.2c0.2,1.1,0.6,2.1,1.1,3.1
				c0.5-0.2,1.1-0.5,1.7-0.7c-0.5-0.9-0.8-1.8-1-2.7c-1-5.1,2.4-10.1,7.5-11.1c0.5-0.1,1-0.2,1.6-0.2c1.9-0.1,3.9,0.5,5.5,1.6
				c2.1,1.4,3.5,3.5,4,6c0.1,0.5,0.1,0.9,0.2,1.4c-0.1,0-0.2,0.1-0.4,0.1c0.7-0.1,1.4-0.2,2.2-0.3c0-0.5-0.1-1.1-0.2-1.6
				C40.3,15.4,38.7,12.8,36.2,11.1z"/>
		</g>
		<path fill="#FFFFFF" d="M54.2,17h-0.7c0-0.1,0-0.1,0-0.2c0,0,0,0,0,0v-0.5h0.7V17z M61.7,14.8H61v0.7h0.7v0h0L61.7,14.8L61.7,14.8
			z M61,11.1h2.2V14h0H61V11.1z M61.7,11.9c0,0.5,0,0.9,0,1.4c0,0,0,0,0,0c0,0,0,0,0,0c0,0,0,0,0,0c0,0,0,0,0,0c0.1,0,0.2,0,0.3,0
			c0.1,0,0.2,0,0.3,0c0,0,0,0,0,0c0,0,0,0,0,0c0,0,0,0,0,0c0,0,0,0,0,0c0-0.5,0-0.9,0-1.4c0-0.1,0-0.1-0.1-0.1c-0.1,0-0.2,0-0.3,0
			C62,11.8,61.8,11.8,61.7,11.9C61.7,11.8,61.7,11.8,61.7,11.9 M56.8,12.8c0,0.2,0.1,0.3,0.3,0.3c0,0.1,0.1,0.2,0.2,0.3c0,0,0,0,0,0
			c0.1,0,0.3-0.1,0.3-0.2c0-0.1,0-0.3-0.1-0.4c-0.1-0.1-0.3-0.2-0.4-0.2C56.9,12.5,56.8,12.7,56.8,12.8 M62.4,14.8L62.4,14.8l0,0.7
			h0v0h0.7v-0.7H62.4z M72.1,16.8c0,0.4-0.2,0.7-0.4,1c-0.2,0.2-0.4,0.4-0.7,0.6c-0.2,0.1-0.4,0.1-0.5,0.2h-0.6c0,0,0,0.1,0,0.1
			c0,0.1,0,0.1,0.1,0.1c0.2,0,0.4,0,0.7,0v0.7h-2.2v-0.7c0,0,0,0,0.1,0c0.2,0,0.4,0,0.6,0c0.1,0,0.1,0,0.1-0.1c0,0,0-0.1,0-0.1h-2.3
			c0,0,0,0.1,0,0.1c0,0.1,0,0.1,0.1,0.1c0.2,0,0.4,0,0.6,0h0.1v0.7h-2.2v-0.7c0,0,0,0,0.1,0c0.2,0,0.4,0,0.6,0c0,0,0.1,0,0.1-0.1
			c0,0,0-0.1,0-0.1h-1.5v0.9c0,0-0.1,0-0.1,0c-0.9,0-1.8,0-2.6,0h-2.4c0,0-0.1,0-0.1,0v-0.9h-1.5c0,0,0,0.1,0,0.1c0,0,0,0.1,0.1,0.1
			c0.2,0,0.4,0,0.6,0c0,0,0,0,0.1,0v0.7h-2.2v-0.7h0.1c0.2,0,0.4,0,0.6,0c0.1,0,0.1,0,0.1-0.1c0,0,0-0.1,0-0.1h-1v0H54v-0.7
			c1.8,0,3.6,0,5.4,0c0.1,0,0.1,0,0.1,0V17c0,0,0,0-0.1,0c-1.3,0-2.7,0-4,0H55v-0.7h0.1h4.3c0.1,0,0.1,0,0.1,0v-0.7c0,0,0,0-0.1,0
			c-1.8,0-4.7,0-6.5,0l-0.2-0.7l2.4,0l-0.5-1.1c-0.1-0.1-0.1-0.3-0.1-0.5c-0.1-0.4,0.1-0.7,0.3-1c0.3-0.3,0.6-0.5,1-0.5
			c0.1,0,0.2,0,0.3,0.1c-0.1-0.3-0.3-0.6-0.6-0.7c-0.1,0-0.1-0.1-0.1-0.2c0-0.1,0-0.1,0-0.2c0.1-0.1,0.2-0.2,0.4-0.1
			c0.3,0.2,0.6,0.4,0.7,0.7c0.2-0.2,0.4-0.4,0.7-0.4h0.6c0.2,0,0.3,0.1,0.3,0.3c0,0.3-0.1,0.5-0.3,0.7c0.1,0.1,0.2,0.2,0.3,0.3
			c0.2,0.3,0.4,0.7,0.3,1c0,0.2-0.2,0.3-0.3,0.2c-0.1,0-0.1,0-0.2-0.1c0-0.1-0.1-0.1-0.1-0.2c0-0.2,0-0.4-0.2-0.6
			c-0.1-0.2-0.4-0.3-0.6-0.3c-0.1,0-0.2,0-0.3,0.1c-0.1,0.1-0.2,0.1-0.3,0.1l0,0c-0.1,0-0.2,0-0.3-0.1c-0.1-0.1-0.2-0.1-0.3-0.1
			c-0.2,0-0.4,0.1-0.6,0.3c-0.1,0.2-0.2,0.4-0.2,0.6c0,0.1,0,0.2,0.1,0.3l0.7,1.3l0.3,0l0.1-0.2c0,0,0,0,0,0c0.1-0.1,0.3-0.1,0.4,0
			l0.1,0.2l0.3,0l0.6-1.1c0.1-0.1,0.2-0.2,0.4-0.1c0.1,0.1,0.2,0.2,0.1,0.4l-0.4,0.9l1.4,0v0c0.1,0,0.2,0,0.3,0c0.1,0,0.1,0,0.1,0
			V10h0V7.2l-4,0c0,0,0,0,0,0c-0.2,0-0.5,0-0.7,0h-0.9c-0.2,0-0.4,0-0.6,0l0-0.1v0.1c0,0,0,0,0,0H52c0,0,0,0,0,0c-0.1,0-0.2,0-0.3,0
			h-1.1v0.3v0v0.6v1.5l0,2.9L50,12.7c0-2.1,0-4.2,0-6.3V6.3l0,0c0.5-0.4,1.1-0.8,1.6-1.3l0.3-0.2c0,0,0.1-0.1,0.1-0.1l0.1-0.1l0-0.3
			l-0.1,0l0,0c0,0-0.1,0-0.1,0c-0.2,0-0.4,0-0.6,0l0,0c-0.3,0-0.6,0-0.9,0h0c-0.1,0-0.2,0-0.3,0c-0.1,0-0.2,0-0.3,0h0
			c-0.4,0-0.8,0-1.2,0l-0.1,0c-0.4,0-0.9,0-1.3,0h0c-0.1,0-0.2,0-0.3,0c-0.1,0-0.2,0-0.3,0c-0.1,0-0.3,0-0.4,0l-0.6,0
			c-0.1,0-0.2,0-0.2,0.1c0,0-0.1,0.1-0.1,0.1c-0.2,0.2-0.4,0-0.7,0.2c0-0.4,0-0.8,0-1.3V3.4l0,0c0.5-0.4,0.9-0.7,1.4-1.1
			C46,2,46.2,1.8,46.5,1.6L47.3,1c0.4-0.3,0.8-0.6,1.2-1l0,0l0,0c0.3,0,0.6,0,0.9,0c0.3,0,0.6,0,0.9,0h0l0,0
			c0.2,0.2,0.4,0.3,0.6,0.5L52.9,2c0.3,0.3,0.7,0.5,1,0.8c0.1,0.1,0.2,0.1,0.4,0.1c0.3,0,0.6,0,0.9,0h0c0.3,0,0.6,0,0.8,0
			c0,0,0,0,0,0l0,0l0,0c0,0,0.1,0.1,0.1,0.1l0.8,0.6c0.4,0.4,0.9,0.7,1.4,1.1c0.6,0.5,1.2,1,1.9,1.5l0,0l0,1.9c0,0,0,0,0-0.1h0h3.7
			c0,0,0,0.1,0,0.1c0,0.4,0,0.9,0,1.3c0,0.1,0,0.1,0.1,0.1c0.2,0,0.4,0,0.6,0h0.1v0c0,0,0,0,0,0v5.2c0,0,0,0,0.1,0
			c0.2,0,0.4,0,0.6,0c0.1,0,0.1,0,0.1-0.1c0-0.9,0-1.9,0-2.8v-0.1h3.7v0.1c0,0.9,0,1.9,0,2.8c0,0.1,0,0.1,0.1,0.1c0.4,0,0.8,0,1.1,0
			c0.3,0,0.5,0.1,0.8,0.2c0.4,0.2,0.6,0.5,0.8,0.9c0.1,0.1,0.1,0.3,0.1,0.5C72.1,16.5,72.1,16.7,72.1,16.8 M56.9,11.8L56.9,11.8
			c0.3,0,0.4-0.1,0.5-0.2h-0.2C57,11.5,56.9,11.6,56.9,11.8 M60.9,8.9c0,0.2,0,0.4,0,0.6c0,0.1,0,0.1,0.1,0.1c0.4,0,0.7,0,1.1,0
			c0.3,0,0.7,0,1,0c0,0,0.1,0,0.1-0.1c0-0.2,0-0.4,0-0.6c0-0.1,0-0.1-0.1-0.1c-0.3,0-0.7,0-1,0h-0.1h0H62
			C61.7,8.9,61.3,8.9,60.9,8.9C61,8.9,60.9,8.9,60.9,8.9 M63.9,10.4C63.9,10.3,63.9,10.3,63.9,10.4l-3.6-0.1c-0.1,0-0.1,0-0.1,0.1
			v7.9v0.2c0,0.1,0,0.1,0.1,0.1h3.5c0.1,0,0.1,0,0.1-0.1v-0.2V10.4z M66.1,12.6c0,0.7,0,1.4,0,2.1c0,0,0,0.1,0.1,0.1
			c0.7,0,1.4,0,2.2,0c0,0,0.1,0,0.1-0.1c0-0.7,0-1.4,0-2.1c0,0,0-0.1-0.1-0.1c-0.2,0-0.4,0-0.7,0c0,0-0.1,0-0.1,0.1
			c0,0.2,0,0.4,0,0.6v0.1h-0.7v-0.1c0-0.2,0-0.4,0-0.6c0,0,0-0.1-0.1-0.1C66.6,12.6,66.4,12.6,66.1,12.6
			C66.1,12.6,66.1,12.6,66.1,12.6 M71.4,16.7c0-0.3-0.1-0.5-0.2-0.7c-0.2-0.3-0.5-0.4-0.9-0.4c-1.9,0-3.7,0-5.6,0c0,0-0.1,0-0.1,0
			v0.7c0,0,0,0,0.1,0h4.3h0.1V17h-0.4c-1.3,0-2.7,0-4,0c0,0-0.1,0-0.1,0v0.7c0,0,0,0,0.1,0c1.8,0,3.7,0,5.5,0c0.1,0,0.3,0,0.4-0.1
			C71.1,17.5,71.4,17.1,71.4,16.7 M69.9,17h0.7v-0.7h-0.7V17z M50.7,19.7H50v-8h0.7V19.7z M45,19.6h-0.7V4.3H45V19.6z"/>
	</g>
	<g>
		<g>
			<g>
				<path fill="#FFFFFF" d="M15.8,46.8h-1.5c0-0.3,0-0.6,0-1.1c0-0.5,0-1.1,0-1.9c0-0.3,0-0.8,0-1.3c0-0.5,0-1.1,0-1.6h1.5
					c0,0.4,0,0.9,0,1.4c0,0.5,0,1,0,1.4c0,0.8,0,1.5,0,1.9C15.8,46.1,15.8,46.5,15.8,46.8z"/>
				<path fill="#FFFFFF" d="M22.2,40.8c0,0.5,0,1,0,1.6c0,0.5,0,0.9,0,1.2c0,0.7,0,1.3,0,1.8c0,0.5,0,0.9,0,1l-1.1,0.4
					c-0.8-1-1.4-1.9-2.1-2.7c-0.6-0.8-1-1.2-1.2-1.4l0,0c0,0.6,0,1.4,0,2.3c0,0.9,0,1.5,0,1.7h-1.4c0-0.1,0-0.5,0-1
					c0-0.5,0-1.1,0-1.9c0-0.3,0-0.7,0-1.2c0-0.5,0-1,0-1.5l1.2-0.5c0.1,0.2,0.5,0.6,1.2,1.4s1.3,1.6,2,2.4l0,0c0-0.4,0-1,0-1.8
					s0-1.4,0-1.9H22.2z"/>
				<path fill="#FFFFFF" d="M28.7,43.9c0,0.5-0.1,1-0.4,1.4c-0.3,0.4-0.6,0.7-1,1c-0.4,0.2-0.8,0.4-1.2,0.5c-0.4,0.1-1,0.2-1.6,0.2
					c-0.3,0-0.6,0-0.9,0c-0.3,0-0.5,0-0.6,0c0,0,0-0.3,0-0.9s0-1.3,0-2.1c0-0.3,0-0.7,0-1.2c0-0.5,0-1.1,0-1.7c0,0,0.2,0,0.6,0
					s0.6,0,0.7,0c0.6,0,1.2,0.1,1.7,0.2c0.5,0.1,0.9,0.3,1.3,0.5c0.4,0.3,0.8,0.6,1,1C28.6,42.9,28.7,43.3,28.7,43.9z M27.1,43.8
					c0-0.3-0.1-0.6-0.2-0.8s-0.3-0.5-0.6-0.6c-0.2-0.2-0.5-0.3-0.8-0.3S24.9,42,24.7,42c0,0-0.1,0-0.1,0s-0.1,0-0.1,0
					c0,0.3,0,0.6,0,0.9s0,0.5,0,0.7c0,0.2,0,0.4,0,0.8s0,0.8,0,1.4c0,0,0.1,0,0.1,0s0,0,0.1,0c0.3,0,0.5,0,0.8-0.1s0.5-0.2,0.7-0.3
					c0.3-0.2,0.5-0.4,0.7-0.6S27.1,44.1,27.1,43.8z"/>
				<path fill="#FFFFFF" d="M35.3,43.8c0,0.5-0.1,0.9-0.3,1.3c-0.2,0.4-0.4,0.7-0.7,1c-0.3,0.3-0.6,0.5-1,0.6
					c-0.4,0.1-0.8,0.2-1.2,0.2c-0.4,0-0.8-0.1-1.2-0.2c-0.4-0.1-0.7-0.3-1-0.6c-0.3-0.3-0.6-0.6-0.7-1c-0.2-0.4-0.3-0.9-0.3-1.4
					c0-0.5,0.1-0.9,0.2-1.3c0.2-0.4,0.4-0.7,0.7-1c0.3-0.3,0.6-0.5,1-0.6c0.4-0.1,0.8-0.2,1.2-0.2c0.4,0,0.8,0.1,1.2,0.2
					c0.4,0.1,0.7,0.3,1,0.6c0.3,0.3,0.6,0.6,0.7,1C35.2,42.9,35.3,43.4,35.3,43.8z M33.7,43.9c0-0.3-0.1-0.6-0.2-0.9
					c-0.1-0.3-0.3-0.5-0.5-0.7C33,42.1,32.8,42,32.7,42c-0.2-0.1-0.4-0.1-0.6-0.1c-0.2,0-0.4,0-0.6,0.1s-0.3,0.2-0.5,0.3
					c-0.2,0.2-0.3,0.4-0.4,0.7c-0.1,0.3-0.2,0.6-0.2,0.9c0,0.3,0.1,0.6,0.2,0.9s0.3,0.5,0.4,0.7c0.1,0.1,0.3,0.2,0.5,0.3
					s0.4,0.1,0.6,0.1c0.2,0,0.4,0,0.6-0.1c0.2-0.1,0.3-0.2,0.5-0.3c0.2-0.2,0.3-0.4,0.4-0.7C33.7,44.5,33.7,44.2,33.7,43.9z"/>
				<path fill="#FFFFFF" d="M38.3,44.8h-2.9v-1.2h2.9V44.8z"/>
				<path fill="#FFFFFF" d="M40.2,46.8h-1.5c0-0.1,0-0.4,0-1c0-0.6,0-1.3,0-2.3c0-0.3,0-0.8,0-1.2s0-1,0-1.4h1.5c0,0.4,0,0.9,0,1.5
					c0,0.6,0,1.1,0,1.5c0,0.8,0,1.5,0,2C40.2,46.4,40.2,46.7,40.2,46.8z M44.1,46.4l-1.3,0.5c-0.6-0.8-1.2-1.4-1.7-2
					c-0.5-0.6-0.8-0.9-0.9-1v0c0.2-0.2,0.5-0.6,1-1.2c0.5-0.6,1-1.3,1.5-1.9l1.3,0.5c-0.4,0.5-0.8,1-1.3,1.6
					c-0.4,0.5-0.7,0.9-0.8,0.9v0c0,0,0.3,0.3,0.7,0.8C43,45.1,43.5,45.7,44.1,46.4z"/>
				<path fill="#FFFFFF" d="M48.8,46.8c-0.1,0-0.4,0-0.9,0c-0.5,0-1,0-1.4,0c-0.4,0-0.8,0-1.2,0c-0.4,0-0.7,0-0.9,0c0-0.2,0-0.5,0-1
					c0-0.5,0-1.2,0-2c0-0.3,0-0.8,0-1.3c0-0.5,0-1.1,0-1.6c0.2,0,0.5,0,0.9,0c0.4,0,0.7,0,1.1,0c0.5,0,1,0,1.5,0c0.5,0,0.8,0,0.8,0
					v1.1c-0.1,0-0.2,0-0.6,0c-0.3,0-0.7,0-1,0c-0.2,0-0.4,0-0.7,0c-0.3,0-0.5,0-0.6,0c0,0.2,0,0.5,0,0.7c0,0.2,0,0.5,0,0.7
					c0.2,0,0.4,0,0.6,0c0.2,0,0.4,0,0.6,0c0.4,0,0.7,0,1.1,0s0.5,0,0.6,0v0.9c-0.1,0-0.3,0-0.7,0c-0.4,0-0.7,0-1,0
					c-0.2,0-0.3,0-0.6,0c-0.2,0-0.4,0-0.6,0c0,0.3,0,0.6,0,0.9c0,0.2,0,0.5,0,0.6c0.2,0,0.4,0,0.7,0c0.3,0,0.6,0,0.8,0
					c0.3,0,0.6,0,0.9,0s0.5,0,0.5,0V46.8z"/>
				<path fill="#FFFFFF" d="M55.1,40.8c0,0.5,0,1,0,1.6c0,0.5,0,0.9,0,1.2c0,0.7,0,1.3,0,1.8c0,0.5,0,0.9,0,1L54,46.9
					c-0.8-1-1.4-1.9-2.1-2.7c-0.6-0.8-1-1.2-1.2-1.4l0,0c0,0.6,0,1.4,0,2.3c0,0.9,0,1.5,0,1.7h-1.4c0-0.1,0-0.5,0-1s0-1.1,0-1.9
					c0-0.3,0-0.7,0-1.2c0-0.5,0-1,0-1.5l1.2-0.5c0.1,0.2,0.5,0.6,1.2,1.4c0.6,0.8,1.3,1.6,2,2.4l0,0c0-0.4,0-1,0-1.8
					c0-0.8,0-1.4,0-1.9H55.1z"/>
				<path fill="#FFFFFF" d="M61,41.2c-0.1,0.1-0.4,0.5-0.9,1.3c-0.5,0.7-0.9,1.3-1.3,1.8c0,0.5,0,1,0,1.4s0,0.8,0,1.1h-1.5
					c0-0.2,0-0.6,0-1c0-0.5,0-0.9,0-1.4c-0.3-0.5-0.7-1.1-1.2-1.8s-0.8-1.1-0.9-1.3l1.4-0.5c0.1,0.2,0.3,0.5,0.6,0.9
					c0.3,0.5,0.6,0.9,0.9,1.3h0c0.3-0.5,0.7-1,1-1.4s0.5-0.7,0.6-0.8L61,41.2z"/>
				<path fill="#FFFFFF" d="M65.4,46.4l-1.5,0.5c0-0.1-0.1-0.3-0.2-0.6c-0.1-0.3-0.3-0.7-0.4-1.1H61c-0.2,0.4-0.3,0.8-0.4,1.1
					c-0.1,0.3-0.2,0.5-0.2,0.6L59,46.5c0.1-0.2,0.4-0.9,0.9-2.1c0.5-1.2,1.1-2.4,1.5-3.5h1.5c0.5,1.2,1,2.4,1.6,3.6
					C65,45.7,65.3,46.4,65.4,46.4z M62.9,44.2c-0.1-0.3-0.2-0.6-0.4-1c-0.1-0.4-0.3-0.7-0.4-1.1l0,0c-0.1,0.3-0.2,0.6-0.4,1.1
					c-0.2,0.4-0.3,0.8-0.4,1l0,0L62.9,44.2L62.9,44.2z"/>
			</g>
		</g>
		<g>
			<g>
				<path fill="#70B644" d="M24.6,57.6l-2.4,0.8c-0.1-0.2-0.2-0.5-0.4-1.1c-0.2-0.6-0.4-1.2-0.7-1.9h-3.8c-0.3,0.7-0.5,1.3-0.7,1.9
					c-0.2,0.6-0.3,0.9-0.4,1.1l-2.3-0.8c0.1-0.3,0.6-1.5,1.5-3.5s1.8-4,2.6-5.9h2.5c0.8,2,1.7,4,2.6,6.1
					C24.1,56.3,24.6,57.4,24.6,57.6z M20.5,53.9c-0.2-0.5-0.4-1.1-0.6-1.7c-0.2-0.6-0.4-1.2-0.7-1.8l0,0c-0.2,0.5-0.4,1.1-0.7,1.8
					c-0.3,0.7-0.5,1.3-0.6,1.7l0,0L20.5,53.9L20.5,53.9z"/>
				<path fill="#70B644" d="M33.5,53c0,0.4,0,0.8,0,1.3c0,0.5,0,0.9,0,1.2c0,0.5,0,0.9,0,1.4s0,0.9,0,1.3c-0.1,0-0.3,0-0.7,0.1
					c-0.4,0-0.7,0-1,0c-1.1,0-2.1-0.1-3-0.3c-0.9-0.2-1.7-0.6-2.5-1.2c-0.5-0.4-0.9-0.9-1.2-1.5c-0.3-0.6-0.5-1.3-0.5-2
					c0-0.8,0.2-1.6,0.6-2.2c0.4-0.7,1-1.2,1.8-1.7c0.6-0.4,1.4-0.7,2.2-0.9c0.8-0.2,1.8-0.3,2.8-0.3c0.1,0,0.2,0,0.3,0
					c0.1,0,0.2,0,0.3,0l0.3,2.1c0,0-0.1,0-0.3,0c-0.1,0-0.2,0-0.4,0c-0.5,0-1,0-1.6,0.1s-1.1,0.2-1.5,0.4c-0.6,0.3-1.1,0.6-1.5,1.1
					s-0.5,1-0.5,1.5c0,0.6,0.1,1.1,0.4,1.6c0.3,0.4,0.6,0.7,1.1,1c0.3,0.2,0.7,0.3,1.1,0.4c0.4,0.1,0.8,0.2,1.3,0.2c0-0.1,0-0.4,0-1
					c0-0.6,0-1.4,0-2.5H33.5z"/>
				<path fill="#70B644" d="M43.3,57.5L41,58.4c-0.2-0.3-0.5-0.7-1.1-1.4c-0.5-0.7-1.4-1.8-2.5-3.2l0-0.1c0.2,0,0.4-0.1,0.6-0.3
					c0.3-0.1,0.5-0.3,0.7-0.5c0.2-0.2,0.3-0.4,0.4-0.6c0.1-0.2,0.1-0.5,0.1-0.8c0-0.3-0.1-0.6-0.2-0.8c-0.2-0.2-0.4-0.4-0.6-0.5
					c-0.2-0.1-0.5-0.2-0.7-0.2c-0.2,0-0.5,0-0.7,0c-0.1,0-0.2,0-0.3,0s-0.1,0-0.1,0c0,0.6,0,1.2,0,1.8s0,1.2,0,1.7
					c0,0.8,0,1.7,0,2.6c0,1,0,1.6,0,2.1h-2.5c0-0.4,0-1,0-1.7c0-0.8,0-1.9,0-3.4c0-0.4,0-1,0-1.7c0-0.7,0-1.8,0-3.1
					c0.1,0,0.4,0,0.9,0c0.5,0,0.9,0,1.3,0c0.7,0,1.4,0,1.9,0.1c0.5,0,1.1,0.1,1.5,0.3c0.7,0.2,1.2,0.6,1.5,1
					c0.3,0.4,0.5,0.9,0.5,1.5c0,0.6-0.2,1.2-0.5,1.6s-0.7,0.8-1.1,1v0c0.5,0.6,1.1,1.3,1.6,2S42.9,57,43.3,57.5z"/>
				<path fill="#70B644" d="M52.8,53.2c0,0.8-0.1,1.5-0.4,2.2c-0.3,0.7-0.7,1.2-1.2,1.7c-0.5,0.5-1,0.8-1.6,1s-1.3,0.3-2,0.3
					c-0.7,0-1.3-0.1-1.9-0.3c-0.6-0.2-1.1-0.5-1.6-0.9c-0.5-0.5-0.9-1.1-1.2-1.7c-0.3-0.7-0.5-1.4-0.5-2.3c0-0.8,0.1-1.5,0.4-2.1
					c0.2-0.6,0.6-1.2,1.1-1.7c0.5-0.5,1-0.8,1.6-1.1c0.6-0.2,1.3-0.4,2.1-0.4c0.7,0,1.4,0.1,2,0.3c0.6,0.2,1.2,0.6,1.6,1
					c0.5,0.5,0.9,1.1,1.2,1.7C52.7,51.7,52.8,52.5,52.8,53.2z M50.3,53.3c0-0.5-0.1-1-0.3-1.5c-0.2-0.5-0.4-0.9-0.8-1.2
					c-0.2-0.2-0.5-0.4-0.7-0.5s-0.6-0.2-0.9-0.2c-0.3,0-0.7,0.1-0.9,0.2c-0.3,0.1-0.6,0.3-0.8,0.5c-0.3,0.3-0.5,0.7-0.7,1.2
					c-0.2,0.5-0.3,0.9-0.3,1.4c0,0.5,0.1,1,0.3,1.5c0.2,0.4,0.4,0.8,0.7,1.1c0.2,0.2,0.5,0.4,0.8,0.5c0.3,0.1,0.6,0.2,0.9,0.2
					c0.3,0,0.6-0.1,0.9-0.2s0.6-0.3,0.8-0.5c0.3-0.3,0.5-0.7,0.7-1.1C50.2,54.3,50.3,53.8,50.3,53.3z"/>
				<path fill="#70B644" d="M65.6,57.2l-1.3,1.5L62,56.9h0c-0.6,0.5-1.2,0.9-1.8,1.2c-0.6,0.3-1.2,0.4-1.8,0.4
					c-1.2,0-2.1-0.3-2.8-0.9s-1-1.3-1-2c0-0.6,0.2-1.1,0.5-1.6s0.8-0.9,1.3-1.3v0c-0.3-0.3-0.6-0.6-0.8-0.9
					c-0.2-0.4-0.3-0.7-0.3-1.2c0-0.7,0.3-1.3,1-1.8c0.7-0.5,1.5-0.7,2.4-0.7c1,0,1.8,0.2,2.4,0.7c0.6,0.5,0.9,1.1,0.9,1.9
					c0,0.5-0.2,1-0.5,1.5c-0.3,0.5-0.8,1-1.4,1.4l0,0c0.2,0.2,0.5,0.4,0.8,0.6c0.3,0.2,0.5,0.4,0.6,0.5h0c0.5-0.6,1-1.3,1.4-2
					s0.7-1.1,0.7-1.2l1.7,1.1c-0.1,0.1-0.4,0.5-0.9,1.2c-0.5,0.7-0.9,1.2-1.3,1.6v0L65.6,57.2z M60.6,55.8L60.6,55.8
					c-0.3-0.3-0.8-0.6-1.3-1c-0.5-0.4-1-0.8-1.5-1.2l0,0c-0.3,0.3-0.6,0.6-0.7,0.9c-0.1,0.3-0.2,0.6-0.2,0.9c0,0.4,0.2,0.8,0.5,1
					c0.3,0.3,0.7,0.4,1.1,0.4c0.4,0,0.8-0.1,1.1-0.3C60.1,56.4,60.4,56.1,60.6,55.8z M60.2,50.8c0-0.4-0.1-0.7-0.3-0.9
					c-0.2-0.2-0.6-0.4-1-0.4c-0.4,0-0.7,0.1-0.9,0.3c-0.3,0.2-0.4,0.5-0.4,0.9c0,0.3,0.1,0.6,0.4,0.9c0.3,0.3,0.7,0.6,1.3,1.1h0
					c0.4-0.3,0.6-0.6,0.8-0.9C60.1,51.5,60.2,51.1,60.2,50.8z"/>
				<path fill="#F8B916" d="M23.6,62.2c-0.2,0-0.6,0-1.3,0c-0.7,0-1.4,0-2.1,0c-0.4,0-0.9,0-1.5,0c-0.5,0-1,0-1.3,0c0,0.5,0,1,0,1.7
					c0,0.6,0,1.2,0,1.7c0.2,0,0.6,0,1.1,0c0.5,0,0.9,0,1.3,0c0.8,0,1.6,0,2.3,0s1.2,0,1.4,0v2.1c-0.2,0-0.7,0-1.6,0
					c-0.9,0-1.6,0-2.2,0c-0.3,0-0.7,0-1.2,0c-0.5,0-0.8,0-1,0c0,1.1,0,2.1,0,2.9s0,1.7,0,2.3h-3.3c0-0.5,0-1.2,0-2.2
					c0-1,0-2.5,0-4.6c0-0.8,0-1.7,0-2.9c0-1.2,0-2.4,0-3.6c0.4,0,1.1,0,1.8,0c0.8,0,1.7,0,2.6,0c1.1,0,2.1,0,3.1,0s1.6,0,1.8,0V62.2
					z"/>
				<path fill="#F8B916" d="M37.8,66.3c0,1.1-0.2,2-0.6,2.9c-0.4,0.9-0.9,1.7-1.6,2.3c-0.7,0.6-1.4,1.1-2.2,1.4s-1.7,0.4-2.6,0.4
					c-0.9,0-1.8-0.1-2.6-0.4c-0.8-0.3-1.5-0.7-2.2-1.3c-0.7-0.6-1.3-1.4-1.7-2.3c-0.4-0.9-0.6-1.9-0.6-3c0-1,0.2-2,0.5-2.8
					c0.3-0.8,0.8-1.6,1.5-2.3c0.6-0.6,1.4-1.1,2.2-1.4c0.8-0.3,1.8-0.5,2.8-0.5c1,0,1.9,0.2,2.7,0.5c0.8,0.3,1.6,0.8,2.2,1.4
					c0.7,0.7,1.2,1.4,1.6,2.3C37.6,64.4,37.8,65.3,37.8,66.3z M34.4,66.4c0-0.7-0.1-1.3-0.3-2c-0.2-0.7-0.6-1.2-1-1.6
					c-0.3-0.3-0.6-0.5-1-0.7c-0.4-0.2-0.8-0.2-1.3-0.2c-0.5,0-0.9,0.1-1.3,0.2c-0.4,0.2-0.7,0.4-1.1,0.7c-0.4,0.4-0.7,0.9-1,1.5
					c-0.2,0.6-0.3,1.3-0.3,1.9c0,0.7,0.1,1.4,0.3,2s0.6,1.1,1,1.5c0.3,0.3,0.6,0.5,1,0.7c0.4,0.2,0.8,0.2,1.3,0.2
					c0.4,0,0.9-0.1,1.2-0.2c0.4-0.2,0.7-0.4,1-0.7c0.4-0.4,0.7-0.9,1-1.5C34.3,67.7,34.4,67.1,34.4,66.4z"/>
				<path fill="#F8B916" d="M52.4,66.3c0,1.1-0.2,2-0.6,2.9c-0.4,0.9-0.9,1.7-1.6,2.3c-0.7,0.6-1.4,1.1-2.2,1.4s-1.7,0.4-2.6,0.4
					c-0.9,0-1.8-0.1-2.6-0.4c-0.8-0.3-1.5-0.7-2.2-1.3C40,71,39.4,70.3,39,69.3c-0.4-0.9-0.6-1.9-0.6-3c0-1,0.2-2,0.5-2.8
					c0.3-0.8,0.8-1.6,1.5-2.3c0.6-0.6,1.4-1.1,2.2-1.4c0.8-0.3,1.8-0.5,2.8-0.5c1,0,1.9,0.2,2.7,0.5c0.8,0.3,1.6,0.8,2.2,1.4
					c0.7,0.7,1.2,1.4,1.6,2.3C52.2,64.4,52.4,65.3,52.4,66.3z M49,66.4c0-0.7-0.1-1.3-0.3-2c-0.2-0.7-0.6-1.2-1-1.6
					c-0.3-0.3-0.6-0.5-1-0.7c-0.4-0.2-0.8-0.2-1.3-0.2c-0.5,0-0.9,0.1-1.3,0.2c-0.4,0.2-0.7,0.4-1.1,0.7c-0.4,0.4-0.7,0.9-1,1.5
					c-0.2,0.6-0.3,1.3-0.3,1.9c0,0.7,0.1,1.4,0.3,2c0.2,0.6,0.6,1.1,1,1.5c0.3,0.3,0.6,0.5,1,0.7c0.4,0.2,0.8,0.2,1.3,0.2
					c0.4,0,0.9-0.1,1.2-0.2c0.4-0.2,0.7-0.4,1-0.7c0.4-0.4,0.7-0.9,1-1.5C48.9,67.7,49,67.1,49,66.4z"/>
				<path fill="#F8B916" d="M65.6,66.4c0,1.2-0.3,2.2-0.9,3.1c-0.6,0.9-1.3,1.6-2.2,2.1c-0.8,0.5-1.7,0.8-2.7,1.1S57.7,73,56.3,73
					c-0.6,0-1.3,0-2,0s-1.1,0-1.2,0c0-0.1,0-0.8,0-2.1c0-1.3,0-2.9,0-4.7c0-0.7,0-1.7,0-2.8c0-1.1,0-2.3,0-3.7c0.1,0,0.5,0,1.3,0
					c0.8,0,1.3,0,1.6,0c1.4,0,2.7,0.1,3.8,0.4c1.1,0.2,2,0.6,2.9,1.2c1,0.6,1.7,1.4,2.1,2.2C65.3,64.3,65.6,65.3,65.6,66.4z
					 M62.2,66.3c0-0.7-0.1-1.3-0.4-1.8c-0.3-0.5-0.7-1-1.4-1.4c-0.6-0.3-1.2-0.6-1.8-0.7c-0.7-0.1-1.3-0.2-1.9-0.2
					c-0.1,0-0.1,0-0.2,0s-0.1,0-0.1,0c0,0.7,0,1.3,0,1.9c0,0.6,0,1.1,0,1.5c0,0.3,0,0.9,0,1.7s0,1.8,0,3.1c0.1,0,0.1,0,0.2,0
					s0.1,0,0.2,0c0.6,0,1.2-0.1,1.9-0.2s1.2-0.3,1.6-0.6c0.7-0.4,1.2-0.9,1.5-1.4C62,67.6,62.2,67,62.2,66.3z"/>
			</g>
		</g>
		<g>
			<g>
				<path fill="#10B0E6" d="M18.3,76.7c0,0.5-0.1,0.9-0.4,1.3c-0.3,0.4-0.6,0.6-1.1,0.8c-0.3,0.1-0.6,0.2-0.9,0.2s-0.7,0.1-1,0.1
					l0,1.8h-1.6c0-0.3,0-0.7,0-1.2c0-0.5,0-1.3,0-2.3c0-0.4,0-0.8,0-1.3c0-0.5,0-1.1,0-1.7c0.2,0,0.3,0,0.5,0c0.2,0,0.4,0,0.5,0
					c0.7,0,1.2,0,1.7,0.1s0.8,0.2,1.1,0.3c0.4,0.2,0.7,0.4,0.9,0.8C18.2,75.9,18.3,76.3,18.3,76.7z M16.7,76.8
					c0-0.2-0.1-0.5-0.2-0.6c-0.1-0.2-0.3-0.3-0.5-0.4c-0.2-0.1-0.3-0.1-0.5-0.1c-0.2,0-0.3,0-0.5,0c0,0,0,0-0.1,0s-0.1,0-0.1,0
					c0,0,0,0.2,0,0.6c0,0.3,0,0.6,0,0.8c0,0.2,0,0.4,0,0.7c0,0.3,0,0.4,0,0.5c0,0,0,0,0.1,0s0.1,0,0.1,0c0.2,0,0.3,0,0.5,0
					c0.2,0,0.3-0.1,0.5-0.1c0.2-0.1,0.4-0.3,0.5-0.4C16.6,77.3,16.7,77.1,16.7,76.8z"/>
				<path fill="#10B0E6" d="M24.6,80.5L23.1,81c-0.1-0.2-0.4-0.5-0.7-0.9c-0.4-0.4-0.9-1.1-1.6-2.1l0-0.1c0.1,0,0.2-0.1,0.4-0.2
					c0.2-0.1,0.3-0.2,0.4-0.3c0.1-0.1,0.2-0.2,0.3-0.4c0.1-0.1,0.1-0.3,0.1-0.5c0-0.2-0.1-0.4-0.2-0.5s-0.2-0.3-0.4-0.3
					c-0.1-0.1-0.3-0.1-0.5-0.1s-0.3,0-0.5,0c-0.1,0-0.2,0-0.2,0c0,0-0.1,0-0.1,0c0,0.4,0,0.8,0,1.2c0,0.4,0,0.8,0,1.1
					c0,0.5,0,1.1,0,1.7c0,0.6,0,1.1,0,1.4h-1.6c0-0.3,0-0.6,0-1.1c0-0.5,0-1.2,0-2.2c0-0.3,0-0.6,0-1.1c0-0.5,0-1.2,0-2.1
					c0.1,0,0.3,0,0.6,0c0.3,0,0.6,0,0.8,0c0.5,0,0.9,0,1.3,0c0.4,0,0.7,0.1,1,0.2c0.4,0.1,0.8,0.4,1,0.7s0.3,0.6,0.3,1
					c0,0.4-0.1,0.8-0.3,1.1c-0.2,0.3-0.5,0.5-0.7,0.7v0c0.3,0.4,0.7,0.9,1.1,1.3C24.1,79.8,24.4,80.1,24.6,80.5z"/>
				<path fill="#10B0E6" d="M30.8,77.7c0,0.5-0.1,1-0.3,1.4c-0.2,0.4-0.4,0.8-0.8,1.1c-0.3,0.3-0.7,0.5-1.1,0.7
					c-0.4,0.1-0.8,0.2-1.3,0.2c-0.4,0-0.9-0.1-1.3-0.2c-0.4-0.1-0.7-0.3-1.1-0.6c-0.3-0.3-0.6-0.7-0.8-1.1c-0.2-0.4-0.3-0.9-0.3-1.5
					c0-0.5,0.1-1,0.2-1.4c0.2-0.4,0.4-0.8,0.7-1.1c0.3-0.3,0.7-0.5,1.1-0.7c0.4-0.2,0.9-0.2,1.3-0.2c0.5,0,0.9,0.1,1.3,0.2
					s0.8,0.4,1.1,0.7c0.3,0.3,0.6,0.7,0.8,1.1C30.8,76.7,30.8,77.2,30.8,77.7z M29.2,77.7c0-0.3-0.1-0.6-0.2-1
					c-0.1-0.3-0.3-0.6-0.5-0.8c-0.1-0.1-0.3-0.2-0.5-0.3c-0.2-0.1-0.4-0.1-0.6-0.1c-0.2,0-0.4,0-0.6,0.1c-0.2,0.1-0.4,0.2-0.5,0.4
					c-0.2,0.2-0.4,0.5-0.5,0.8c-0.1,0.3-0.2,0.6-0.2,0.9c0,0.4,0.1,0.7,0.2,1c0.1,0.3,0.3,0.5,0.5,0.7c0.1,0.1,0.3,0.2,0.5,0.3
					c0.2,0.1,0.4,0.1,0.6,0.1c0.2,0,0.4,0,0.6-0.1c0.2-0.1,0.4-0.2,0.5-0.3c0.2-0.2,0.4-0.4,0.5-0.7C29.1,78.4,29.2,78,29.2,77.7z"
					/>
				<path fill="#10B0E6" d="M36.4,79.6c0,0.2-0.1,0.4-0.1,0.6c0,0.2-0.1,0.5-0.1,0.8c0,0-0.1,0-0.1,0s-0.1,0-0.1,0
					c-0.8,0-1.5-0.1-2.1-0.3c-0.6-0.2-1.2-0.4-1.6-0.8c-0.3-0.3-0.6-0.6-0.8-1c-0.2-0.4-0.3-0.8-0.3-1.3c0-0.5,0.1-0.9,0.3-1.2
					s0.4-0.7,0.8-1c0.4-0.4,1-0.6,1.6-0.8c0.6-0.2,1.3-0.3,2.1-0.3c0,0,0.1,0,0.1,0s0.1,0,0.1,0c0,0.1,0,0.3,0.1,0.6
					s0.1,0.5,0.1,0.8c0,0-0.1,0-0.1,0s-0.1,0-0.1,0c-0.3,0-0.6,0-1,0.1c-0.4,0.1-0.7,0.2-1,0.3c-0.4,0.2-0.7,0.4-0.9,0.7
					c-0.2,0.3-0.3,0.6-0.3,0.9c0,0.4,0.1,0.7,0.3,0.9s0.5,0.5,0.9,0.7c0.3,0.1,0.6,0.2,1,0.3c0.4,0.1,0.7,0.1,1,0.1c0,0,0.1,0,0.1,0
					C36.3,79.6,36.4,79.6,36.4,79.6z"/>
				<path fill="#10B0E6" d="M41.5,80.9c-0.1,0-0.4,0-1,0c-0.5,0-1.1,0-1.6,0c-0.4,0-0.9,0-1.3,0s-0.7,0-0.9,0c0-0.2,0-0.5,0-1.1
					c0-0.6,0-1.3,0-2.2c0-0.4,0-0.8,0-1.4c0-0.6,0-1.2,0-1.8c0.2,0,0.5,0,0.9,0c0.4,0,0.8,0,1.2,0c0.6,0,1.1,0,1.6,0
					c0.5,0,0.8,0,0.9,0v1.2c-0.1,0-0.3,0-0.6,0c-0.4,0-0.7,0-1.1,0c-0.2,0-0.5,0-0.8,0s-0.5,0-0.7,0c0,0.2,0,0.5,0,0.8
					c0,0.3,0,0.5,0,0.7c0.2,0,0.4,0,0.6,0c0.3,0,0.5,0,0.6,0c0.4,0,0.8,0,1.2,0s0.6,0,0.7,0v1c-0.1,0-0.3,0-0.8,0
					c-0.4,0-0.8,0-1.1,0c-0.2,0-0.4,0-0.6,0c-0.3,0-0.5,0-0.7,0c0,0.4,0,0.7,0,1c0,0.3,0,0.5,0,0.7c0.2,0,0.5,0,0.8,0
					c0.3,0,0.6,0,0.9,0c0.4,0,0.7,0,1,0s0.5,0,0.6,0V80.9z"/>
				<path fill="#10B0E6" d="M46.4,79c0,0.4-0.1,0.7-0.3,0.9s-0.4,0.5-0.8,0.6c-0.3,0.1-0.6,0.3-1,0.3S43.5,81,43.1,81
					c-0.3,0-0.6,0-0.8,0c-0.2,0-0.4,0-0.5,0l-0.1-1.3c0,0,0.2,0,0.4,0c0.3,0,0.5,0,0.7,0c0.2,0,0.3,0,0.6,0c0.2,0,0.4-0.1,0.6-0.1
					c0.2-0.1,0.3-0.1,0.4-0.2c0.1-0.1,0.1-0.2,0.1-0.4c0-0.2,0-0.3-0.1-0.4c-0.1-0.1-0.2-0.2-0.5-0.3c-0.1-0.1-0.3-0.2-0.6-0.3
					c-0.2-0.1-0.4-0.2-0.6-0.3c-0.3-0.2-0.5-0.4-0.7-0.6c-0.1-0.2-0.2-0.5-0.2-0.8c0-0.2,0.1-0.5,0.2-0.7c0.1-0.2,0.2-0.4,0.4-0.5
					c0.3-0.2,0.6-0.4,1-0.5s1-0.2,1.6-0.2c0.3,0,0.5,0,0.7,0c0.2,0,0.3,0,0.4,0l0.2,1.3c-0.1,0-0.2,0-0.4,0c-0.2,0-0.4,0-0.7,0
					c-0.2,0-0.4,0-0.5,0c-0.2,0-0.3,0.1-0.5,0.1c-0.1,0-0.3,0.1-0.3,0.2c-0.1,0.1-0.1,0.2-0.1,0.3c0,0.1,0,0.2,0.1,0.3
					c0.1,0.1,0.2,0.2,0.5,0.3c0.1,0.1,0.3,0.2,0.5,0.2c0.2,0.1,0.4,0.2,0.6,0.3c0.3,0.2,0.5,0.4,0.7,0.6S46.4,78.7,46.4,79z"/>
				<path fill="#10B0E6" d="M51.6,79c0,0.4-0.1,0.7-0.3,0.9s-0.4,0.5-0.8,0.6c-0.3,0.1-0.6,0.3-1,0.3C49.1,81,48.7,81,48.2,81
					c-0.3,0-0.6,0-0.8,0c-0.2,0-0.4,0-0.5,0l-0.1-1.3c0,0,0.2,0,0.4,0c0.3,0,0.5,0,0.7,0c0.2,0,0.3,0,0.6,0c0.2,0,0.4-0.1,0.6-0.1
					c0.2-0.1,0.3-0.1,0.4-0.2c0.1-0.1,0.1-0.2,0.1-0.4c0-0.2,0-0.3-0.1-0.4c-0.1-0.1-0.2-0.2-0.5-0.3c-0.1-0.1-0.3-0.2-0.5-0.3
					c-0.2-0.1-0.4-0.2-0.6-0.3c-0.3-0.2-0.5-0.4-0.7-0.6c-0.1-0.2-0.2-0.5-0.2-0.8c0-0.2,0.1-0.5,0.2-0.7c0.1-0.2,0.2-0.4,0.4-0.5
					c0.3-0.2,0.6-0.4,1-0.5s1-0.2,1.6-0.2c0.3,0,0.5,0,0.7,0c0.2,0,0.3,0,0.4,0l0.2,1.3c-0.1,0-0.2,0-0.4,0s-0.4,0-0.7,0
					c-0.2,0-0.4,0-0.5,0c-0.2,0-0.3,0.1-0.5,0.1c-0.1,0-0.3,0.1-0.3,0.2c-0.1,0.1-0.1,0.2-0.1,0.3c0,0.1,0,0.2,0.1,0.3
					c0.1,0.1,0.2,0.2,0.5,0.3c0.1,0.1,0.3,0.2,0.5,0.2c0.2,0.1,0.4,0.2,0.6,0.3c0.3,0.2,0.5,0.4,0.7,0.6
					C51.5,78.4,51.6,78.7,51.6,79z"/>
				<path fill="#10B0E6" d="M53.5,80.9h-1.6c0-0.3,0-0.7,0-1.2c0-0.5,0-1.2,0-2.1c0-0.4,0-0.8,0-1.4c0-0.6,0-1.2,0-1.8h1.6
					c0,0.4,0,1,0,1.5c0,0.6,0,1.1,0,1.5c0,0.9,0,1.6,0,2.1C53.5,80.1,53.5,80.5,53.5,80.9z"/>
				<path fill="#10B0E6" d="M60.2,74.4c0,0.6,0,1.1,0,1.7c0,0.6,0,1,0,1.3c0,0.7,0,1.4,0,2c0,0.6,0,0.9,0,1.1L59.1,81
					c-0.8-1.1-1.6-2.1-2.3-2.9c-0.7-0.8-1.1-1.4-1.3-1.5l0,0c0,0.7,0,1.5,0,2.5c0,1,0,1.6,0,1.8H54c0-0.2,0-0.5,0-1.1
					c0-0.5,0-1.2,0-2c0-0.3,0-0.8,0-1.3c0-0.5,0-1.1,0-1.7l1.3-0.5c0.1,0.2,0.6,0.7,1.3,1.6c0.7,0.9,1.4,1.7,2.2,2.6l0,0
					c0-0.4,0-1.1,0-2c0-0.9,0-1.6,0-2.1H60.2z"/>
				<path fill="#10B0E6" d="M66.3,77.5c0,0.2,0,0.5,0,0.8c0,0.3,0,0.6,0,0.8c0,0.3,0,0.6,0,0.9c0,0.3,0,0.6,0,0.8c0,0-0.2,0-0.4,0
					c-0.3,0-0.5,0-0.6,0c-0.7,0-1.4-0.1-2-0.2c-0.6-0.2-1.1-0.4-1.6-0.8c-0.3-0.3-0.6-0.6-0.8-1c-0.2-0.4-0.3-0.8-0.3-1.3
					c0-0.5,0.1-1,0.4-1.5c0.3-0.4,0.7-0.8,1.2-1.1c0.4-0.2,0.9-0.4,1.4-0.6c0.6-0.1,1.2-0.2,1.8-0.2c0.1,0,0.2,0,0.2,0
					c0.1,0,0.1,0,0.2,0l0.2,1.3c0,0-0.1,0-0.2,0s-0.2,0-0.2,0c-0.3,0-0.7,0-1.1,0.1c-0.4,0.1-0.7,0.1-1,0.3c-0.4,0.2-0.7,0.4-1,0.7
					c-0.2,0.3-0.4,0.6-0.4,1c0,0.4,0.1,0.7,0.3,1s0.4,0.5,0.7,0.6c0.2,0.1,0.5,0.2,0.7,0.3c0.3,0.1,0.6,0.1,0.8,0.1
					c0-0.1,0-0.3,0-0.7c0-0.4,0-0.9,0-1.6H66.3z"/>
			</g>
		</g>
		<g>
			<g>
				<path fill="#10B0E6" d="M24.4,96.1c-0.2,0-0.9,0-2.1,0c-1.1,0-2.2,0-3.4,0c-1,0-1.9,0-2.8,0c-0.9,0-1.6,0-2,0c0-0.4,0-1.2,0-2.4
					c0-1.2,0-2.8,0-4.7c0-0.8,0-1.8,0-3s0-2.5,0-3.8c0.5,0,1.1,0,2,0c0.9,0,1.7,0,2.6,0c1.2,0,2.4,0,3.5,0c1.1,0,1.8,0,1.9,0v2.6
					c-0.1,0-0.6,0-1.4,0c-0.8,0-1.6,0-2.4,0c-0.5,0-1,0-1.6,0c-0.6,0-1.1,0-1.5,0c0,0.5,0,1.1,0,1.6c0,0.6,0,1.1,0,1.6
					c0.4,0,0.8,0,1.4,0c0.6,0,1,0,1.4,0c0.9,0,1.7,0,2.5,0c0.8,0,1.3,0,1.5,0V90c-0.1,0-0.7,0-1.6,0c-0.9,0-1.7,0-2.3,0
					c-0.4,0-0.8,0-1.4,0c-0.6,0-1,0-1.4,0c0,0.8,0,1.5,0,2.1c0,0.6,0,1,0,1.4c0.4,0,1,0,1.7,0c0.7,0,1.3,0,1.9,0c0.8,0,1.5,0,2.1,0
					c0.6,0,1.1,0,1.3,0V96.1z"/>
				<path fill="#10B0E6" d="M38.6,95.1l-3.3,1.3c-0.2-0.4-0.6-1-1.2-1.9c-0.6-0.9-1.4-2.1-2.5-3.6h0c-0.9,1.2-1.6,2.4-2.3,3.4
					s-1.1,1.7-1.3,2.1l-3.1-1.2c0.2-0.3,0.6-1,1.3-1.9s1.7-2.4,3-4.2v0c-0.8-1.2-1.6-2.3-2.4-3.5c-0.9-1.2-1.4-2-1.6-2.4l3.2-1.2
					c0.2,0.4,0.6,1,1.2,1.9c0.6,0.9,1.4,2,2.2,3.2h0.1c0.8-1.1,1.5-2.2,2.2-3.2c0.7-1,1.1-1.6,1.2-1.9l3.1,1.1
					c-0.2,0.3-0.7,1-1.6,2.2s-1.7,2.4-2.5,3.6v0c1,1.4,1.9,2.6,2.6,3.7C37.7,93.6,38.3,94.4,38.6,95.1z"/>
				<path fill="#10B0E6" d="M50.1,87.1c0,1-0.3,1.9-0.9,2.7c-0.6,0.8-1.4,1.4-2.4,1.7c-0.5,0.2-1.2,0.4-1.9,0.5
					c-0.7,0.1-1.4,0.2-2.1,0.2l0,3.9h-3.4c0-0.6,0-1.5,0-2.6s0-2.7,0-4.9c0-0.8,0-1.7,0-2.8c0-1.1,0-2.3,0-3.6c0.3,0,0.7,0,1.1,0
					c0.4,0,0.8,0,1.1,0c1.5,0,2.7,0.1,3.5,0.2c0.9,0.1,1.6,0.4,2.3,0.7c0.9,0.4,1.5,0.9,2,1.6C49.9,85.4,50.1,86.2,50.1,87.1z
					 M46.6,87.3c0-0.5-0.1-1-0.4-1.4c-0.2-0.4-0.6-0.7-1.1-0.9c-0.3-0.2-0.7-0.3-1-0.3c-0.4,0-0.7-0.1-1.1-0.1c0,0-0.1,0-0.2,0
					s-0.1,0-0.2,0c0,0.1,0,0.5,0,1.2c0,0.7,0,1.3,0,1.7c0,0.4,0,0.9,0,1.6c0,0.6,0,0.9,0,1c0,0,0.1,0,0.2,0s0.1,0,0.2,0
					c0.3,0,0.7,0,1.1-0.1c0.4-0.1,0.7-0.2,1-0.3c0.5-0.2,0.9-0.5,1.1-0.9C46.4,88.4,46.6,87.9,46.6,87.3z"/>
				<path fill="#10B0E6" d="M65,89.1c0,1.1-0.2,2.1-0.6,3.1c-0.4,0.9-1,1.7-1.7,2.4c-0.7,0.6-1.5,1.1-2.3,1.4
					c-0.8,0.3-1.8,0.5-2.7,0.5c-1,0-1.9-0.1-2.7-0.4s-1.6-0.7-2.2-1.3C52,94,51.5,93.2,51,92.3s-0.6-2-0.6-3.2c0-1.1,0.2-2,0.5-2.9
					c0.3-0.9,0.9-1.7,1.6-2.4c0.7-0.6,1.4-1.1,2.3-1.5s1.8-0.5,2.9-0.5c1,0,2,0.2,2.8,0.5c0.9,0.3,1.6,0.8,2.3,1.4
					c0.7,0.7,1.3,1.5,1.7,2.4C64.9,87.1,65,88.1,65,89.1z M61.5,89.2c0-0.7-0.1-1.4-0.4-2.1c-0.2-0.7-0.6-1.3-1.1-1.7
					c-0.3-0.3-0.7-0.5-1-0.7c-0.4-0.2-0.8-0.2-1.3-0.2c-0.5,0-0.9,0.1-1.3,0.3c-0.4,0.2-0.8,0.4-1.1,0.8c-0.4,0.4-0.8,1-1,1.6
					c-0.2,0.6-0.4,1.3-0.4,2c0,0.8,0.1,1.4,0.4,2.1c0.2,0.6,0.6,1.2,1,1.6c0.3,0.3,0.7,0.5,1.1,0.7s0.9,0.3,1.3,0.3
					c0.5,0,0.9-0.1,1.3-0.2c0.4-0.2,0.8-0.4,1.1-0.7c0.4-0.4,0.8-0.9,1-1.5C61.4,90.6,61.5,89.9,61.5,89.2z"/>
			</g>
		</g>
	</g>
</g>
</svg>
