<?xml version="1.0" encoding="utf-8"?>
<!-- Generator: Adobe Illustrator 24.0.0, SVG Export Plug-In . SVG Version: 6.00 Build 0)  -->
<svg version="1.1" id="Layer_1" xmlns="http://www.w3.org/2000/svg" xmlns:xlink="http://www.w3.org/1999/xlink" x="0px" y="0px"
	 viewBox="0 0 521.2 118.1" enable-background="new 0 0 521.2 118.1" xml:space="preserve">
<g>
	<g>
		<path fill="#70B644" d="M142.1,108.4c-1.9,5.1-6.6,8.6-12,8.7c-18.1,0.5-53.8,3-50.1-2.2c6.5-9,12.5-15,17.1-19.5
			c8.9-8.8,20.5-23.7,30-25.9c10.1-2.4,23-1.3,33.3-1.8c-1.8,2.6-3,5.4-4.3,8.2c-2.1,4.6-4.2,9.2-6.2,13.9
			C147.2,95.8,144.5,102,142.1,108.4 M79.1,110.6c3.9-5.2,8.1-10.3,12.5-15.1c4.8-5.2,9.7-10.3,14.8-15.1c2.8-2.7,5.6-5.5,8.7-8
			c-27.3,5.2-53.5,14.5-75.4,30.2c-6.2,8.3,6.6,12.3,27,13.9c4.7,0.4,9.2-1.8,12-5.6C78.9,110.8,79,110.7,79.1,110.6 M203.5,70.5
			c0.1-3.7-3-3.4-5-3.5c-6.2-0.2-12.4-0.2-18.5-0.1c-4.2,0-10.1-0.7-13.9,1.1c-2.8,1.4-4.6,6.9-6.8,11c-2.4,4.4-9.3,22.7-11.8,27.9
			c-1.9,4.1-0.7,8.5,3.8,8.3c17.2-0.7,37.1-0.6,38-0.7c4.5-0.2,8.8-3.7,9.3-8.2C198.9,102.3,203.3,78.3,203.5,70.5 M225.8,67.9
			c-2.9-0.4-5.9-0.7-8.8-0.8c-2.6,0-5.1,0.1-7.7,0.1c-0.1,9.6-2.6,19.2-3.8,28.7c-0.4,3.7-1.1,7.3-1.8,10.9c-0.7,3.3,2.5,6.1,5.6,5
			c14.4-4.9,14.2-15.6,17.2-27C229.4,74,228.9,70.1,225.8,67.9"/>
		<path fill="#03455C" d="M263,52.3h-4.1c0-0.7,0-1.7,0-3c0-1.3,0-3.1,0-5.4c0-0.9,0-2.1,0-3.6c0-1.4,0-2.9,0-4.4h4.1
			c0,1.1,0,2.4,0,3.9c0,1.5,0,2.8,0,3.9c0,2.3,0,4.1,0,5.4C263,50.2,263,51.3,263,52.3"/>
		<path fill="#03455C" d="M280.6,35.8c0,1.4,0,2.9,0,4.3c0,1.4,0,2.6,0,3.4c0,1.9,0,3.5,0,5c0,1.5,0,2.4,0,2.8l-2.9,1.2
			c-2.1-2.7-4-5.2-5.7-7.3c-1.8-2.1-2.8-3.4-3.2-3.9l-0.1,0c0,1.8,0,3.9,0,6.4c0,2.5,0,4,0,4.6h-3.8c0-0.4,0-1.3,0-2.7
			c0-1.4,0-3.1,0-5.2c0-0.8,0-1.9,0-3.2c0-1.3,0-2.7,0-4.2l3.2-1.3c0.4,0.4,1.4,1.7,3.2,3.9c1.8,2.2,3.6,4.4,5.5,6.7l0,0
			c0-1.1,0-2.8,0-5c0-2.2,0-4,0-5.3H280.6z"/>
		<path fill="#03455C" d="M298.4,44.1c0,1.4-0.4,2.7-1.1,3.8c-0.7,1.1-1.6,2-2.8,2.6c-1,0.6-2.1,1-3.3,1.3c-1.2,0.3-2.6,0.5-4.3,0.5
			c-0.8,0-1.6,0-2.5,0c-0.9,0-1.4,0-1.5,0c0-0.1,0-0.9,0-2.6c0-1.7,0-3.6,0-5.8c0-0.9,0-2.1,0-3.4c0-1.4,0-2.9,0-4.6
			c0.1,0,0.7,0,1.6,0c1,0,1.6,0,2,0c1.8,0,3.4,0.2,4.7,0.5c1.3,0.3,2.5,0.8,3.6,1.4c1.2,0.8,2.1,1.7,2.7,2.7
			C298.1,41.5,298.4,42.7,298.4,44.1 M294.2,44c0-0.8-0.2-1.6-0.5-2.2c-0.4-0.7-0.9-1.2-1.7-1.7c-0.7-0.4-1.4-0.7-2.2-0.9
			c-0.8-0.2-1.6-0.2-2.3-0.2h-0.3H287c0,0.8,0,1.6,0,2.4v1.8v2.1c0,1,0,2.2,0,3.9h0.2h0.2c0.7,0,1.5-0.1,2.3-0.3
			c0.8-0.2,1.5-0.4,2-0.7c0.8-0.5,1.4-1.1,1.9-1.7C294,45.7,294.2,44.9,294.2,44"/>
		<path fill="#03455C" d="M316.5,44.1c0,1.3-0.2,2.5-0.7,3.6c-0.5,1.1-1.1,2-2,2.8c-0.8,0.8-1.7,1.3-2.7,1.7c-1,0.4-2.1,0.5-3.2,0.5
			c-1.1,0-2.2-0.2-3.2-0.5c-1-0.3-1.9-0.9-2.7-1.6c-0.9-0.8-1.6-1.7-2.1-2.9c-0.5-1.1-0.7-2.4-0.7-3.7c0-1.3,0.2-2.4,0.6-3.5
			c0.4-1,1-2,1.9-2.8c0.8-0.8,1.7-1.4,2.7-1.8c1-0.4,2.2-0.6,3.4-0.6c1.2,0,2.3,0.2,3.3,0.6c1,0.4,1.9,0.9,2.7,1.7
			c0.9,0.8,1.5,1.8,2,2.9C316.3,41.6,316.5,42.8,316.5,44.1 M312.4,44.2c0-0.8-0.1-1.6-0.4-2.5c-0.3-0.8-0.7-1.5-1.3-2
			c-0.4-0.3-0.8-0.6-1.2-0.8c-0.5-0.2-1-0.3-1.6-0.3c-0.6,0-1.1,0.1-1.6,0.3s-0.9,0.5-1.3,0.9c-0.5,0.5-0.9,1.1-1.2,1.9
			c-0.3,0.8-0.4,1.5-0.4,2.4c0,0.9,0.1,1.7,0.4,2.4c0.3,0.7,0.7,1.4,1.2,1.9c0.4,0.3,0.8,0.6,1.3,0.8c0.5,0.2,1,0.3,1.6,0.3
			c0.5,0,1.1-0.1,1.5-0.3c0.5-0.2,0.9-0.5,1.3-0.8c0.5-0.5,0.9-1.1,1.2-1.8C312.2,45.8,312.4,45,312.4,44.2"/>
		<rect x="317" y="43.4" fill="#03455C" width="8" height="3.3"/>
		<path fill="#03455C" d="M330.1,52.3H326c0-0.3,0-1.2,0-2.8c0-1.6,0-3.7,0-6.3c0-1,0-2.1,0-3.4c0-1.3,0-2.6,0-3.9h4.1
			c0,1.2,0,2.6,0,4.1c0,1.5,0,2.9,0,4.2c0,2.3,0,4.1,0,5.6C330.1,51.1,330.1,52,330.1,52.3 M340.9,51l-3.6,1.5
			c-1.7-2.1-3.3-4-4.7-5.6c-1.5-1.7-2.3-2.6-2.4-2.7v0c0.4-0.5,1.3-1.7,2.6-3.3c1.3-1.7,2.7-3.4,4-5.3l3.6,1.5
			c-1.2,1.4-2.3,2.8-3.5,4.3c-1.2,1.5-1.9,2.4-2.1,2.6v0c0.1,0.1,0.7,0.8,1.9,2.2C337.8,47.5,339.2,49.2,340.9,51"/>
		<path fill="#03455C" d="M353.8,52.3c-0.3,0-1.1,0-2.4,0c-1.3,0-2.7,0-4,0c-1.1,0-2.2,0-3.3,0c-1.1,0-1.9,0-2.4,0
			c0-0.4,0-1.4,0-2.8c0-1.5,0-3.3,0-5.5c0-0.9,0-2.1,0-3.6c0-1.5,0-2.9,0-4.5c0.6,0,1.3,0,2.4,0c1,0,2.1,0,3.1,0c1.4,0,2.8,0,4.2,0
			c1.4,0,2.1,0,2.3,0v3c-0.1,0-0.7,0-1.6,0c-0.9,0-1.9,0-2.8,0c-0.5,0-1.2,0-1.9,0c-0.7,0-1.3,0-1.7,0c0,0.6,0,1.3,0,1.9
			c0,0.7,0,1.3,0,1.8c0.4,0,1,0,1.6,0c0.7,0,1.2,0,1.6,0c1.1,0,2,0,3,0c0.9,0,1.5,0,1.8,0v2.4c-0.2,0-0.8,0-1.9,0c-1.1,0-2,0-2.8,0
			c-0.4,0-1,0-1.6,0c-0.7,0-1.2,0-1.7,0c0,1,0,1.8,0,2.5c0,0.7,0,1.2,0,1.7c0.5,0,1.1,0,2,0c0.8,0,1.6,0,2.2,0c0.9,0,1.8,0,2.5,0
			c0.8,0,1.3,0,1.5,0V52.3z"/>
		<path fill="#03455C" d="M371.1,35.8c0,1.4,0,2.9,0,4.3c0,1.4,0,2.6,0,3.4c0,1.9,0,3.5,0,5c0,1.5,0,2.4,0,2.8l-2.9,1.2
			c-2.1-2.7-4-5.2-5.7-7.3c-1.8-2.1-2.8-3.4-3.2-3.9l-0.1,0c0,1.8,0,3.9,0,6.4c0,2.5,0,4,0,4.6h-3.8c0-0.4,0-1.3,0-2.7
			c0-1.4,0-3.1,0-5.2c0-0.8,0-1.9,0-3.2c0-1.3,0-2.7,0-4.2l3.2-1.3c0.4,0.4,1.4,1.7,3.2,3.9c1.8,2.2,3.6,4.4,5.5,6.7l0.1,0
			c0-1.1,0-2.8,0-5c0-2.2,0-4,0-5.3H371.1z"/>
		<path fill="#03455C" d="M387.5,36.9c-0.2,0.3-1,1.5-2.4,3.5c-1.4,2-2.6,3.7-3.5,5c0,1.3,0,2.7,0,3.9c0,1.3,0,2.2,0,2.9h-4.1
			c0-0.6,0-1.6,0-2.8c0-1.3,0-2.6,0-3.9c-0.9-1.4-2.1-3-3.4-4.9c-1.3-1.9-2.2-3.1-2.5-3.6l3.8-1.5c0.3,0.5,0.8,1.3,1.6,2.6
			c0.8,1.2,1.7,2.5,2.5,3.7h0c0.9-1.4,1.8-2.7,2.7-4c0.9-1.3,1.4-2,1.5-2.3L387.5,36.9z"/>
		<path fill="#03455C" d="M399.5,51.3l-4,1.3c-0.1-0.3-0.3-0.9-0.6-1.8c-0.3-0.9-0.7-1.9-1.2-3.1h-6.2c-0.5,1.2-0.9,2.2-1.2,3.1
			c-0.3,0.9-0.5,1.5-0.6,1.8l-3.8-1.3c0.2-0.5,1.1-2.4,2.6-5.8c1.5-3.4,2.9-6.7,4.2-9.8h4.2c1.4,3.3,2.8,6.6,4.3,10.1
			C398.6,49.2,399.4,51,399.5,51.3 M392.7,45.2c-0.3-0.8-0.7-1.7-1-2.8c-0.4-1-0.7-2-1.1-2.9h0c-0.3,0.8-0.7,1.8-1.1,2.9
			c-0.4,1.2-0.8,2.1-1,2.8l0,0L392.7,45.2L392.7,45.2z"/>
		<path fill="#70B644" d="M288.4,83.7l-6.7,2.2c-0.1-0.4-0.5-1.4-1-3c-0.6-1.5-1.2-3.3-2-5.2h-10.4c-0.8,1.9-1.5,3.7-2,5.2
			c-0.6,1.5-0.9,2.5-1,2.9l-6.3-2.1c0.4-0.8,1.8-4.1,4.3-9.7c2.5-5.7,4.8-11.1,7.1-16.3h6.9c2.3,5.5,4.8,11.1,7.2,16.8
			C286.9,80.2,288.2,83.3,288.4,83.7 M277.1,73.6c-0.5-1.4-1.1-2.9-1.7-4.6c-0.6-1.7-1.2-3.3-1.8-4.9h-0.1c-0.5,1.3-1.1,3-1.8,4.9
			c-0.7,1.9-1.3,3.5-1.7,4.6l0,0L277.1,73.6L277.1,73.6z M312.8,71.1c0,1,0,2.2-0.1,3.5c0,1.3,0,2.4,0,3.3c0,1.3,0,2.6,0,3.9
			c0,1.3,0,2.5,0,3.6c-0.2,0-0.8,0.1-1.9,0.2c-1.1,0.1-2,0.1-2.7,0.1c-3.1,0-5.8-0.3-8.3-0.9c-2.5-0.6-4.7-1.8-6.8-3.4
			c-1.4-1.1-2.5-2.4-3.3-4c-0.8-1.6-1.2-3.5-1.2-5.6c0-2.3,0.6-4.4,1.7-6.2c1.1-1.8,2.8-3.3,4.9-4.6c1.7-1,3.7-1.8,6.1-2.4
			c2.3-0.5,4.9-0.8,7.7-0.8c0.4,0,0.7,0,0.9,0c0.3,0,0.5,0,0.8,0l0.7,5.7h-0.7h-1c-1.4,0-2.9,0.1-4.5,0.3c-1.6,0.2-3,0.6-4.2,1.1
			c-1.7,0.7-3.1,1.7-4.1,3s-1.5,2.7-1.5,4.2c0,1.7,0.4,3.1,1.2,4.3c0.8,1.2,1.8,2.1,3,2.7c1,0.5,2,0.9,3.2,1.2
			c1.1,0.3,2.3,0.4,3.6,0.5c0-0.3,0-1.2,0-2.8c0-1.6,0-3.9,0-6.8H312.8z M339.8,83.5l-6.2,2.4c-0.5-0.7-1.5-2-3-3.9
			c-1.5-1.9-3.7-4.8-6.8-8.8l0.1-0.4c0.4-0.1,1-0.3,1.8-0.7c0.7-0.4,1.3-0.8,1.8-1.3c0.5-0.5,0.9-1,1.1-1.6c0.3-0.6,0.4-1.3,0.4-2.1
			c0-0.8-0.2-1.6-0.6-2.2c-0.4-0.7-1-1.1-1.8-1.5c-0.6-0.3-1.2-0.4-1.9-0.5c-0.7-0.1-1.3-0.1-1.9-0.1H322h-0.4c0,1.6,0,3.3,0,5
			c0,1.7,0,3.2,0,4.6c0,2.2,0,4.6,0,7.3c0,2.6,0,4.5,0,5.7h-6.8c0-1.1,0-2.7,0.1-4.8c0-2.1,0-5.2,0-9.3c0-1.1,0-2.6,0-4.7
			c0-2,0-4.9-0.1-8.7c0.4,0,1.2,0,2.5,0c1.2,0,2.4,0,3.5,0c2,0,3.8,0.1,5.3,0.2c1.5,0.1,2.9,0.4,4.2,0.9c1.9,0.6,3.3,1.5,4.2,2.8
			c0.9,1.2,1.4,2.6,1.4,4.1c0,1.7-0.5,3.2-1.5,4.5c-1,1.2-2,2.2-3,2.8v0.1c1.4,1.8,2.9,3.6,4.5,5.4
			C337.6,80.5,338.9,82.1,339.8,83.5 M366.1,71.7c0,2.2-0.4,4.2-1.2,6c-0.8,1.8-1.9,3.4-3.3,4.7c-1.3,1.3-2.9,2.2-4.5,2.8
			c-1.7,0.6-3.5,0.9-5.4,0.9c-1.9,0-3.7-0.3-5.3-0.9c-1.7-0.6-3.1-1.4-4.4-2.6c-1.5-1.3-2.6-2.9-3.4-4.8c-0.8-1.9-1.2-4-1.2-6.2
			c0-2.1,0.3-4,1-5.8c0.7-1.7,1.7-3.3,3.1-4.7c1.3-1.3,2.8-2.3,4.5-2.9c1.7-0.7,3.6-1,5.7-1c2,0,3.9,0.3,5.6,0.9
			c1.7,0.6,3.2,1.6,4.5,2.8c1.5,1.4,2.6,3,3.3,4.8C365.8,67.6,366.1,69.6,366.1,71.7 M359.2,71.9c0-1.4-0.2-2.7-0.7-4.1
			c-0.5-1.4-1.2-2.5-2.1-3.4c-0.6-0.6-1.3-1-2.1-1.3c-0.8-0.3-1.6-0.5-2.6-0.5c-0.9,0-1.8,0.2-2.6,0.5c-0.8,0.3-1.5,0.8-2.2,1.5
			c-0.8,0.8-1.5,1.9-2,3.2c-0.5,1.3-0.7,2.6-0.7,3.9c0,1.5,0.2,2.8,0.7,4.1c0.5,1.2,1.2,2.3,2.1,3.1c0.6,0.6,1.3,1,2.1,1.4
			c0.8,0.3,1.7,0.5,2.6,0.5c0.9,0,1.8-0.2,2.6-0.5c0.8-0.3,1.5-0.8,2.2-1.4c0.8-0.8,1.5-1.8,2-3C358.9,74.6,359.2,73.3,359.2,71.9
			 M401.3,82.6l-3.5,4l-6.5-4.9h0c-1.6,1.5-3.3,2.6-4.9,3.3c-1.6,0.7-3.3,1-5,1c-3.3,0-5.8-0.8-7.6-2.4c-1.8-1.6-2.7-3.4-2.7-5.6
			c0-1.6,0.5-3.1,1.4-4.5c1-1.3,2.2-2.5,3.7-3.5V70c-0.9-0.7-1.7-1.6-2.2-2.6c-0.5-1-0.8-2-0.8-3.2c0-2,0.9-3.7,2.8-5
			c1.9-1.3,4.1-2,6.7-2c2.7,0,4.9,0.7,6.6,2c1.7,1.3,2.5,3,2.5,5.1c0,1.4-0.4,2.8-1.3,4.1c-0.9,1.3-2.1,2.6-3.9,4l0,0.1
			c0.7,0.5,1.4,1.1,2.3,1.8c0.8,0.7,1.4,1.1,1.8,1.4h0c1.4-1.8,2.7-3.6,3.9-5.4c1.2-1.9,1.8-2.9,1.9-3.2l4.7,3.1
			c-0.2,0.4-1,1.5-2.4,3.3c-1.3,1.8-2.5,3.4-3.5,4.5v0L401.3,82.6z M387.6,78.8L387.6,78.8c-0.9-0.8-2.1-1.7-3.5-2.7
			c-1.4-1.1-2.7-2.1-4.1-3.2l0,0c-0.9,0.9-1.6,1.7-1.9,2.4c-0.3,0.7-0.5,1.5-0.5,2.4c0,1.2,0.4,2.2,1.3,2.9c0.9,0.7,1.9,1.1,3.1,1.1
			c1.2,0,2.2-0.3,3.1-0.8C386,80.3,386.9,79.6,387.6,78.8 M386.4,65.1c0-1.1-0.3-1.9-1-2.6c-0.6-0.7-1.5-1-2.7-1
			c-1,0-1.9,0.3-2.6,0.9c-0.7,0.6-1.1,1.4-1.1,2.4c0,0.8,0.4,1.6,1.1,2.4c0.7,0.8,1.9,1.8,3.5,3h0.1c1-0.9,1.7-1.7,2.1-2.5
			C386.2,66.8,386.4,66,386.4,65.1"/>
		<path fill="#F8B916" d="M431,62.5c-0.4,0-1.4,0-2.9,0c-1.5,0-3,0-4.6,0c-1,0-2,0-3.2,0c-1.2,0-2.1,0-2.8,0c0,1.1,0,2.2,0,3.6
			c0,1.3,0,2.5,0,3.6c0.5,0,1.3,0,2.4,0c1.1,0,2,0,2.8,0c1.7,0,3.3,0,5,0c1.6,0,2.7,0,3.1,0v4.6c-0.4,0-1.6,0-3.4,0
			c-1.9,0-3.5,0-4.7,0c-0.7,0-1.5,0-2.5,0c-1,0-1.8,0-2.2,0c0,2.3,0,4.4,0,6.4c0,1.9,0,3.6,0,5h-7.1c0-1,0-2.5,0.1-4.6
			c0-2.1,0-5.4,0-9.9c0-1.6,0-3.7,0-6.3c0-2.5,0-5.1-0.1-7.7c1,0,2.3,0,4,0c1.7,0,3.6,0,5.6,0c2.3,0,4.5,0,6.7,0c2.2,0,3.5,0,4,0
			V62.5z M461.5,71.3c0,2.3-0.4,4.4-1.2,6.3c-0.8,1.9-2,3.6-3.5,5c-1.4,1.3-3,2.3-4.7,2.9c-1.7,0.6-3.6,0.9-5.6,0.9
			c-2,0-3.8-0.3-5.5-0.9c-1.7-0.6-3.3-1.5-4.6-2.7c-1.5-1.4-2.7-3-3.6-5c-0.9-2-1.3-4.1-1.3-6.5c0-2.2,0.4-4.2,1.1-6
			c0.7-1.8,1.8-3.4,3.3-4.9c1.3-1.3,2.9-2.4,4.7-3.1c1.8-0.7,3.8-1.1,5.9-1.1c2.1,0,4,0.3,5.8,1c1.8,0.7,3.4,1.6,4.7,2.9
			c1.5,1.4,2.7,3.1,3.4,5C461.1,67,461.5,69.1,461.5,71.3 M454.2,71.5c0-1.4-0.2-2.9-0.7-4.3c-0.5-1.4-1.2-2.6-2.2-3.5
			c-0.6-0.6-1.3-1.1-2.2-1.4c-0.8-0.3-1.7-0.5-2.7-0.5c-1,0-1.9,0.2-2.7,0.5c-0.8,0.3-1.6,0.9-2.3,1.5c-0.9,0.9-1.6,2-2.1,3.3
			c-0.5,1.3-0.7,2.7-0.7,4.1c0,1.5,0.2,3,0.7,4.3c0.5,1.3,1.2,2.4,2.1,3.3c0.6,0.6,1.4,1.1,2.2,1.4c0.8,0.4,1.8,0.5,2.7,0.5
			c1,0,1.8-0.2,2.7-0.5c0.8-0.3,1.6-0.8,2.3-1.5c0.9-0.8,1.6-1.9,2.1-3.2C454,74.3,454.2,72.9,454.2,71.5 M492.9,71.3
			c0,2.3-0.4,4.4-1.2,6.3c-0.8,1.9-2,3.6-3.5,5c-1.4,1.3-3,2.3-4.7,2.9c-1.7,0.6-3.6,0.9-5.6,0.9c-2,0-3.8-0.3-5.5-0.9
			c-1.7-0.6-3.3-1.5-4.6-2.7c-1.5-1.4-2.7-3-3.6-5c-0.9-2-1.3-4.1-1.3-6.5c0-2.2,0.4-4.2,1.1-6c0.7-1.8,1.8-3.4,3.3-4.9
			c1.3-1.3,2.9-2.4,4.7-3.1c1.8-0.7,3.8-1.1,5.9-1.1c2.1,0,4,0.3,5.8,1c1.8,0.7,3.4,1.6,4.7,2.9c1.5,1.4,2.7,3.1,3.4,5
			C492.6,67,492.9,69.1,492.9,71.3 M485.7,71.5c0-1.4-0.2-2.9-0.7-4.3c-0.5-1.4-1.2-2.6-2.2-3.5c-0.6-0.6-1.3-1.1-2.2-1.4
			c-0.8-0.3-1.7-0.5-2.7-0.5c-1,0-1.9,0.2-2.7,0.5c-0.8,0.3-1.6,0.9-2.3,1.5c-0.9,0.9-1.6,2-2.1,3.3c-0.5,1.3-0.7,2.7-0.7,4.1
			c0,1.5,0.2,3,0.7,4.3c0.5,1.3,1.2,2.4,2.1,3.3c0.6,0.6,1.4,1.1,2.2,1.4c0.8,0.4,1.7,0.5,2.7,0.5c1,0,1.9-0.2,2.7-0.5
			c0.8-0.3,1.6-0.8,2.3-1.5c0.9-0.8,1.6-1.9,2.1-3.2C485.4,74.3,485.7,72.9,485.7,71.5 M521.2,71.4c0,2.5-0.6,4.7-1.8,6.6
			c-1.2,1.9-2.8,3.4-4.8,4.6c-1.7,1-3.6,1.8-5.8,2.3c-2.1,0.5-4.6,0.8-7.4,0.8c-1.3,0-2.8,0-4.4-0.1c-1.6,0-2.5-0.1-2.7-0.1
			c0-0.1,0-1.6,0-4.5c0-2.9,0-6.2,0-10.1c0-1.6,0-3.6,0-6c0-2.4,0-5.1-0.1-8c0.2,0,1.2,0,2.8,0c1.7,0,2.8,0,3.5,0
			c3.1,0,5.8,0.3,8.2,0.8c2.3,0.5,4.4,1.4,6.2,2.5c2.1,1.3,3.6,2.9,4.6,4.8C520.7,66.8,521.2,69,521.2,71.4 M514,71.2
			c0-1.4-0.3-2.7-0.9-3.9c-0.6-1.2-1.6-2.2-2.9-3c-1.2-0.7-2.5-1.2-3.9-1.5c-1.4-0.3-2.8-0.4-4-0.4h-0.5h-0.3c0,1.4,0,2.8,0,4.1v3.2
			v3.6c0,1.6,0,3.9,0,6.8h0.3h0.4c1.3,0,2.6-0.2,4.1-0.5c1.4-0.3,2.6-0.8,3.5-1.3c1.4-0.8,2.5-1.9,3.2-3
			C513.6,74.1,514,72.7,514,71.2"/>
		<path fill="#10B0E6" d="M272.2,98.6c0,1.3-0.4,2.4-1.1,3.3c-0.7,1-1.7,1.7-3,2.1c-0.7,0.3-1.5,0.5-2.3,0.6
			c-0.9,0.1-1.8,0.2-2.6,0.2l0,4.8h-4.2c0-0.8,0-1.8,0-3.2c0-1.3,0-3.4,0-6.1c0-1,0-2.1,0-3.5c0-1.4,0-2.8,0-4.4c0.4,0,0.9,0,1.4,0
			c0.5,0,1,0,1.4,0c1.8,0,3.3,0.1,4.4,0.2c1.1,0.2,2,0.4,2.8,0.8c1.1,0.5,1.9,1.2,2.4,2C271.9,96.5,272.2,97.5,272.2,98.6
			 M267.8,98.9c0-0.7-0.1-1.2-0.4-1.7c-0.3-0.5-0.7-0.9-1.3-1.2c-0.4-0.2-0.8-0.3-1.3-0.4c-0.5,0-0.9-0.1-1.4-0.1h-0.2H263
			c0,0.1,0,0.6,0,1.5c0,0.9,0,1.6,0,2.1v1.9v1.2h0.2h0.2c0.4,0,0.9,0,1.4-0.1c0.5-0.1,0.9-0.2,1.2-0.4c0.6-0.3,1.1-0.7,1.4-1.1
			C267.7,100.3,267.8,99.7,267.8,98.9"/>
		<path fill="#10B0E6" d="M288.8,108.5l-3.9,1.5c-0.3-0.5-0.9-1.3-1.9-2.5c-0.9-1.2-2.3-3-4.2-5.5l0.1-0.3c0.3-0.1,0.7-0.2,1.1-0.4
			c0.5-0.2,0.8-0.5,1.2-0.8c0.3-0.3,0.6-0.6,0.7-1c0.2-0.3,0.2-0.8,0.2-1.3c0-0.5-0.1-1-0.4-1.4c-0.3-0.4-0.6-0.7-1.1-0.9
			c-0.4-0.2-0.8-0.3-1.2-0.3c-0.4,0-0.8-0.1-1.2-0.1h-0.5h-0.2c0,1,0,2.1,0,3.1c0,1.1,0,2,0,2.9c0,1.4,0,2.9,0,4.6
			c0,1.6,0,2.8,0,3.6h-4.2c0-0.7,0-1.7,0-3c0-1.3,0-3.2,0-5.8c0-0.7,0-1.7,0-2.9c0-1.3,0-3.1,0-5.4c0.2,0,0.8,0,1.5,0
			c0.8,0,1.5,0,2.2,0c1.3,0,2.4,0,3.3,0.1c0.9,0.1,1.8,0.3,2.6,0.5c1.2,0.4,2.1,1,2.6,1.7c0.6,0.8,0.9,1.6,0.9,2.6
			c0,1.1-0.3,2-0.9,2.8c-0.6,0.8-1.2,1.4-1.9,1.7v0.1c0.9,1.1,1.8,2.3,2.8,3.4C287.4,106.7,288.2,107.7,288.8,108.5"/>
		<path fill="#10B0E6" d="M305.3,101.1c0,1.4-0.2,2.6-0.7,3.8c-0.5,1.1-1.2,2.1-2.1,3c-0.8,0.8-1.8,1.4-2.8,1.7
			c-1,0.4-2.2,0.6-3.4,0.6c-1.2,0-2.3-0.2-3.3-0.5c-1-0.4-2-0.9-2.8-1.6c-0.9-0.8-1.6-1.8-2.1-3c-0.5-1.2-0.8-2.5-0.8-3.9
			c0-1.3,0.2-2.5,0.6-3.6c0.4-1.1,1.1-2.1,2-2.9c0.8-0.8,1.7-1.4,2.8-1.8c1.1-0.4,2.3-0.6,3.6-0.6c1.3,0,2.4,0.2,3.5,0.6
			c1.1,0.4,2,1,2.8,1.7c0.9,0.9,1.6,1.9,2.1,3C305,98.6,305.3,99.8,305.3,101.1 M300.9,101.3c0-0.9-0.1-1.7-0.4-2.6
			c-0.3-0.8-0.7-1.5-1.3-2.1c-0.4-0.4-0.8-0.6-1.3-0.8c-0.5-0.2-1-0.3-1.6-0.3c-0.6,0-1.1,0.1-1.6,0.3c-0.5,0.2-1,0.5-1.4,0.9
			c-0.5,0.5-0.9,1.2-1.2,2c-0.3,0.8-0.4,1.6-0.4,2.5c0,0.9,0.1,1.8,0.4,2.6c0.3,0.8,0.7,1.4,1.3,2c0.4,0.4,0.8,0.6,1.3,0.9
			c0.5,0.2,1,0.3,1.6,0.3c0.6,0,1.1-0.1,1.6-0.3c0.5-0.2,0.9-0.5,1.3-0.9c0.5-0.5,0.9-1.1,1.2-1.9
			C300.8,103,300.9,102.1,300.9,101.3"/>
		<path fill="#10B0E6" d="M320,106.4c-0.1,0.5-0.2,1-0.3,1.6c-0.1,0.6-0.2,1.3-0.2,2h-0.3h-0.3c-2.1,0-4-0.2-5.7-0.7
			s-3.1-1.2-4.2-2.1c-0.9-0.7-1.6-1.6-2.1-2.6c-0.5-1-0.7-2.1-0.7-3.4c0-1.2,0.2-2.3,0.7-3.2c0.5-1,1.2-1.8,2.1-2.5
			c1.1-1,2.6-1.7,4.3-2.2c1.7-0.5,3.5-0.7,5.4-0.7h0.3h0.3c0,0.4,0.1,0.9,0.2,1.5c0.1,0.7,0.2,1.3,0.3,2.1h-0.3h-0.3
			c-0.7,0-1.6,0.1-2.6,0.2c-1,0.2-1.9,0.4-2.7,0.7c-1,0.4-1.8,1-2.4,1.7c-0.6,0.7-0.9,1.5-0.9,2.5c0,0.9,0.3,1.7,0.8,2.5
			c0.6,0.7,1.4,1.3,2.4,1.7c0.8,0.4,1.7,0.6,2.7,0.8c1,0.2,1.9,0.2,2.7,0.2h0.4H320z"/>
		<path fill="#10B0E6" d="M333.4,109.7c-0.3,0-1.2,0-2.5,0c-1.4,0-2.8,0-4.1,0c-1.2,0-2.3,0-3.5,0c-1.1,0-1.9,0-2.5,0
			c0-0.5,0-1.4,0-2.9c0-1.5,0-3.4,0-5.8c0-1,0-2.2,0-3.7c0-1.5,0-3.1,0-4.6c0.6,0,1.4,0,2.5,0c1.1,0,2.1,0,3.2,0c1.5,0,2.9,0,4.3,0
			c1.4,0,2.2,0,2.4,0v3.2c-0.1,0-0.7,0-1.7,0c-1,0-1.9,0-2.9,0c-0.6,0-1.2,0-2,0c-0.8,0-1.4,0-1.8,0c0,0.6,0,1.3,0,2
			c0,0.7,0,1.4,0,1.9c0.4,0,1,0,1.7,0c0.7,0,1.3,0,1.7,0c1.1,0,2.1,0,3.1,0c1,0,1.6,0,1.8,0v2.5c-0.2,0-0.8,0-2,0
			c-1.1,0-2.1,0-2.9,0c-0.4,0-1,0-1.7,0c-0.7,0-1.3,0-1.7,0c0,1,0,1.9,0,2.6c0,0.7,0,1.3,0,1.7c0.5,0,1.2,0,2,0c0.9,0,1.6,0,2.3,0
			c1,0,1.9,0,2.6,0c0.8,0,1.3,0,1.5,0V109.7z"/>
		<path fill="#10B0E6" d="M346.3,104.7c0,0.9-0.2,1.7-0.7,2.4c-0.5,0.7-1.2,1.2-2,1.7c-0.7,0.4-1.7,0.7-2.7,0.9
			c-1.1,0.2-2.2,0.3-3.3,0.3c-0.8,0-1.5,0-2.2,0c-0.6,0-1.1-0.1-1.3-0.1l-0.4-3.4c0.1,0,0.5,0,1.2,0.1c0.7,0,1.3,0.1,1.8,0.1
			c0.4,0,0.9,0,1.5-0.1c0.6-0.1,1.1-0.2,1.5-0.3c0.5-0.2,0.9-0.4,1.1-0.6c0.2-0.3,0.3-0.6,0.3-0.9c0-0.4-0.1-0.8-0.4-1
			c-0.2-0.3-0.7-0.6-1.2-0.9c-0.4-0.2-0.8-0.4-1.5-0.7c-0.6-0.3-1.1-0.5-1.6-0.8c-0.8-0.5-1.4-1.1-1.8-1.7c-0.4-0.6-0.5-1.3-0.5-2.1
			c0-0.7,0.1-1.2,0.4-1.8c0.3-0.5,0.6-1,1.1-1.3c0.7-0.6,1.6-1.1,2.8-1.4c1.2-0.3,2.5-0.5,4.1-0.5c0.7,0,1.4,0,1.9,0
			c0.5,0,0.9,0,1,0.1l0.4,3.4c-0.2,0-0.6,0-1-0.1c-0.5,0-1-0.1-1.7-0.1c-0.5,0-0.9,0-1.4,0.1c-0.4,0.1-0.9,0.2-1.3,0.3
			c-0.4,0.1-0.7,0.3-0.9,0.5c-0.2,0.2-0.3,0.5-0.3,0.9c0,0.3,0.1,0.6,0.4,0.9c0.2,0.3,0.7,0.6,1.3,0.9c0.4,0.2,0.8,0.4,1.4,0.7
			c0.5,0.2,1,0.5,1.5,0.8c0.8,0.5,1.4,1,1.8,1.7C346.1,103.1,346.3,103.9,346.3,104.7"/>
		<path fill="#10B0E6" d="M360,104.7c0,0.9-0.2,1.7-0.7,2.4c-0.5,0.7-1.2,1.2-2,1.7c-0.7,0.4-1.7,0.7-2.7,0.9
			c-1.1,0.2-2.2,0.3-3.3,0.3c-0.8,0-1.5,0-2.2,0c-0.6,0-1.1-0.1-1.3-0.1l-0.4-3.4c0.1,0,0.5,0,1.2,0.1c0.7,0,1.3,0.1,1.8,0.1
			c0.4,0,0.9,0,1.5-0.1c0.6-0.1,1.1-0.2,1.5-0.3c0.5-0.2,0.9-0.4,1.1-0.6c0.2-0.3,0.3-0.6,0.3-0.9c0-0.4-0.1-0.8-0.4-1
			c-0.2-0.3-0.6-0.6-1.2-0.9c-0.4-0.2-0.8-0.4-1.4-0.7c-0.6-0.3-1.1-0.5-1.6-0.8c-0.8-0.5-1.4-1.1-1.8-1.7c-0.4-0.6-0.5-1.3-0.5-2.1
			c0-0.7,0.1-1.2,0.4-1.8c0.3-0.5,0.6-1,1.1-1.3c0.7-0.6,1.6-1.1,2.7-1.4c1.2-0.3,2.5-0.5,4.1-0.5c0.7,0,1.4,0,1.9,0
			c0.5,0,0.9,0,1,0.1l0.4,3.4c-0.2,0-0.5,0-1-0.1c-0.5,0-1-0.1-1.7-0.1c-0.5,0-0.9,0-1.4,0.1c-0.4,0.1-0.9,0.2-1.3,0.3
			c-0.4,0.1-0.7,0.3-0.9,0.5c-0.2,0.2-0.3,0.5-0.3,0.9c0,0.3,0.1,0.6,0.4,0.9c0.2,0.3,0.7,0.6,1.3,0.9c0.4,0.2,0.8,0.4,1.4,0.7
			c0.5,0.2,1,0.5,1.5,0.8c0.8,0.5,1.4,1,1.8,1.7C359.8,103.1,360,103.9,360,104.7"/>
		<path fill="#10B0E6" d="M365,109.7h-4.2c0-0.7,0-1.8,0-3.1c0-1.4,0-3.2,0-5.6c0-1,0-2.2,0-3.8c0-1.5,0-3.1,0-4.6h4.2
			c0,1.2,0,2.5,0,4c0,1.5,0,2.9,0,4.1c0,2.4,0,4.3,0,5.6C365,107.6,365,108.7,365,109.7"/>
		<path fill="#10B0E6" d="M382.9,92.6c0,1.5,0,3,0,4.5c0,1.5,0,2.7,0,3.5c0,1.9,0,3.7,0,5.2c0,1.5,0,2.5,0,2.9l-3.1,1.2
			c-2.2-2.9-4.2-5.4-6-7.7c-1.8-2.2-3-3.6-3.4-4.1l-0.1,0c0,1.8,0,4.1,0,6.7c0,2.6,0,4.2,0,4.8h-3.9c0-0.4,0-1.4,0-2.8
			c0-1.4,0-3.3,0-5.4c0-0.9,0-2,0-3.4c0-1.4,0-2.9,0-4.4l3.3-1.3c0.4,0.5,1.5,1.8,3.3,4.1c1.9,2.3,3.8,4.6,5.8,7l0.1,0
			c0-1.2,0-2.9,0-5.2c0-2.3,0-4.2,0-5.6H382.9z"/>
		<path fill="#10B0E6" d="M399,100.8c0,0.6,0,1.4,0,2.2c0,0.8,0,1.5,0,2.1c0,0.8,0,1.6,0,2.4c0,0.8,0,1.6,0,2.2
			c-0.1,0-0.5,0.1-1.2,0.1c-0.7,0-1.2,0.1-1.7,0.1c-1.9,0-3.7-0.2-5.2-0.6c-1.5-0.4-3-1.1-4.3-2.1c-0.9-0.7-1.5-1.5-2.1-2.5
			c-0.5-1-0.8-2.2-0.8-3.5c0-1.4,0.4-2.7,1.1-3.9c0.7-1.1,1.7-2.1,3.1-2.9c1.1-0.6,2.3-1.1,3.8-1.5c1.5-0.3,3.1-0.5,4.8-0.5
			c0.2,0,0.4,0,0.6,0c0.2,0,0.3,0,0.5,0l0.5,3.5h-0.5h-0.6c-0.9,0-1.8,0.1-2.8,0.2c-1,0.1-1.9,0.4-2.7,0.7c-1.1,0.4-1.9,1.1-2.5,1.9
			c-0.6,0.8-0.9,1.7-0.9,2.6c0,1.1,0.2,2,0.7,2.7c0.5,0.7,1.1,1.3,1.9,1.7c0.6,0.3,1.3,0.6,2,0.7c0.7,0.2,1.5,0.3,2.2,0.3
			c0-0.2,0-0.7,0-1.7c0-1,0-2.4,0-4.3H399z"/>
		<path fill="#10B0E6" d="M424.2,110.3c-0.3,0-1.2,0-2.6,0c-1.4,0-2.9,0-4.3,0c-1.2,0-2.4,0-3.6,0c-1.2,0-2,0-2.5,0c0-0.5,0-1.5,0-3
			c0-1.6,0-3.5,0-5.9c0-1,0-2.3,0-3.9c0-1.6,0-3.2,0-4.8c0.6,0,1.5,0,2.6,0c1.1,0,2.2,0,3.3,0c1.5,0,3,0,4.5,0c1.5,0,2.3,0,2.5,0
			v3.3c-0.1,0-0.7,0-1.7,0c-1,0-2,0-3,0c-0.6,0-1.3,0-2.1,0c-0.8,0-1.4,0-1.8,0c0,0.7,0,1.4,0,2.1c0,0.7,0,1.4,0,2c0.5,0,1,0,1.8,0
			c0.7,0,1.3,0,1.8,0c1.1,0,2.2,0,3.2,0c1,0,1.6,0,1.9,0v2.6c-0.2,0-0.9,0-2,0c-1.2,0-2.2,0-3,0c-0.4,0-1,0-1.8,0
			c-0.7,0-1.3,0-1.8,0c0,1,0,1.9,0,2.6c0,0.7,0,1.3,0,1.8c0.5,0,1.2,0,2.1,0c0.9,0,1.7,0,2.4,0c1,0,1.9,0,2.7,0c0.8,0,1.4,0,1.6,0
			V110.3z"/>
		<path fill="#10B0E6" d="M442.4,109l-4.1,1.6c-0.3-0.5-0.8-1.3-1.5-2.4c-0.7-1.1-1.8-2.6-3.1-4.6h-0.1c-1.1,1.6-2.1,3-3,4.4
			c-0.9,1.3-1.4,2.2-1.6,2.6l-4-1.5c0.2-0.4,0.8-1.2,1.7-2.5c0.9-1.2,2.1-3,3.8-5.3v-0.1c-1-1.5-2-3-3.1-4.5c-1.1-1.5-1.8-2.5-2.1-3
			l4.1-1.5c0.2,0.5,0.7,1.3,1.5,2.4c0.8,1.2,1.7,2.5,2.8,4.1h0.1c1-1.5,1.9-2.8,2.7-4.1c0.9-1.3,1.4-2.1,1.5-2.4l4,1.5
			c-0.2,0.4-0.9,1.3-2,2.8c-1.1,1.5-2.2,3.1-3.2,4.6v0.1c1.3,1.8,2.4,3.3,3.3,4.7C441.2,107.1,441.9,108.2,442.4,109"/>
		<path fill="#10B0E6" d="M457,98.9c0,1.3-0.4,2.5-1.1,3.5c-0.8,1-1.8,1.7-3.1,2.2c-0.7,0.3-1.5,0.5-2.4,0.6
			c-0.9,0.1-1.8,0.2-2.7,0.2l0,4.9h-4.4c0-0.8,0-1.9,0-3.3c0-1.4,0-3.5,0-6.3c0-1,0-2.2,0-3.6c0-1.4,0-2.9,0-4.5c0.4,0,0.9,0,1.4,0
			c0.5,0,1,0,1.4,0c1.9,0,3.4,0.1,4.5,0.3c1.1,0.2,2.1,0.5,2.9,0.9c1.1,0.5,1.9,1.2,2.5,2.1C456.7,96.6,457,97.7,457,98.9
			 M452.5,99.1c0-0.7-0.2-1.3-0.5-1.8c-0.3-0.5-0.8-0.9-1.4-1.2c-0.4-0.2-0.9-0.3-1.3-0.4c-0.5,0-0.9-0.1-1.4-0.1h-0.2h-0.2
			c0,0.1,0,0.6,0,1.5c0,0.9,0,1.6,0,2.2v2v1.3h0.2h0.2c0.4,0,0.9,0,1.4-0.1c0.5-0.1,0.9-0.2,1.3-0.4c0.6-0.3,1.1-0.7,1.4-1.2
			C452.3,100.6,452.5,99.9,452.5,99.1"/>
		<path fill="#10B0E6" d="M476,101.4c0,1.4-0.3,2.7-0.8,3.9c-0.5,1.2-1.2,2.2-2.1,3.1c-0.9,0.8-1.8,1.4-2.9,1.8
			c-1.1,0.4-2.2,0.6-3.5,0.6c-1.2,0-2.4-0.2-3.4-0.6c-1.1-0.4-2-0.9-2.9-1.7c-0.9-0.8-1.7-1.9-2.2-3.1c-0.5-1.2-0.8-2.6-0.8-4
			c0-1.4,0.2-2.6,0.7-3.7c0.4-1.1,1.1-2.1,2-3c0.8-0.8,1.8-1.5,2.9-1.9c1.1-0.4,2.4-0.7,3.7-0.7c1.3,0,2.5,0.2,3.6,0.6
			c1.1,0.4,2.1,1,2.9,1.8c0.9,0.9,1.6,1.9,2.1,3.1C475.8,98.8,476,100.1,476,101.4 M471.5,101.6c0-0.9-0.1-1.8-0.4-2.6
			c-0.3-0.9-0.8-1.6-1.4-2.2c-0.4-0.4-0.8-0.7-1.3-0.9c-0.5-0.2-1.1-0.3-1.7-0.3c-0.6,0-1.2,0.1-1.7,0.3c-0.5,0.2-1,0.5-1.4,1
			c-0.5,0.5-1,1.2-1.3,2.1c-0.3,0.8-0.5,1.7-0.5,2.5c0,1,0.2,1.8,0.5,2.6c0.3,0.8,0.7,1.5,1.3,2c0.4,0.4,0.8,0.7,1.4,0.9
			c0.5,0.2,1.1,0.3,1.7,0.3c0.6,0,1.1-0.1,1.7-0.3c0.5-0.2,1-0.5,1.4-0.9c0.5-0.5,1-1.2,1.3-2C471.3,103.3,471.5,102.5,471.5,101.6"
			/>
		<rect x="243.5" y="35.7" fill="#03455C" width="1.6" height="73.9"/>
		<path fill="#8EC7A6" d="M6.9,89.7c1.7-4.1,4,1.6,7,0.7c3-0.9,3.8-2.1,7.4-2.1c3.7-0.1,3.4,1.2,6.5,0.4c3.2-0.8,5-1.6,9-1.4
			c3.9,0.2,4.1-0.7,5.7,0.1c1.6,0.8,4.4,0.7,4.1,1.6c-0.3,0.9-19.5,11.3-25.2,18C15.8,113.7,4.2,96.3,6.9,89.7"/>
		<path fill="#245C2E" d="M48.9,88.2c-3,0.3-5.5-2-8.5-2.3c-2-0.2-3.9,0.2-5.8,0.6c-3.1,0.7-5.4,1.7-8.4,0.6
			c-1.8-0.6-3.4-0.7-5.2-0.1c-1,0.3-1.8,0.8-2.7,1.3c-1.1,0.6-1.5,0.9-2.4,0.6c-0.2-0.1-1.2-0.9-1.5-1c-0.7-0.3-1.6-0.4-2.4-0.5
			c-2-0.1-4.2,0.5-6.1,0.8c-2.2,0.4-4.4,0.4-5.7,2.1c-0.3,0.4,0,0.8,0.3,1.1c3.7,2.3,9.3-2.6,12.9,0c1.1,0.8,1.6,1.4,3.1,1.2
			c2.3-0.3,3.9-2.2,6.1-2.6c2.2-0.4,4.2,1,6.5,0.7c2.3-0.3,4.5-1.3,6.7-2c3.1-1,5.5-0.8,8.6,0.1c1.7,0.5,3,0.6,4.5-0.3
			C49.1,88.3,49,88.1,48.9,88.2"/>
	</g>
	<g>
		<path fill="#11B3E8" d="M136.4,47.7c-0.9-2.3-1.9-4.5-3.2-6.5l7.1-7.2c-0.1-1-0.3-1.9-0.3-2.9c0-0.2,0-0.5,0-0.7l-7.7-8.9
			l-9.8,7.3c-1.9-1.5-3.9-2.9-6-4l3-11.8l-13.8-4.7l-4.9,11.2c-2.4-0.4-4.8-0.5-7.2-0.5L90.3,7.1L76,9.8L77.4,22
			c-2.3,0.9-4.4,2-6.5,3.2l-8.7-8.5l-11,9.6l7.3,9.8c-1.5,1.9-2.9,3.9-4,6l-11.8-3l-4.7,13.8L49,57.6c-0.4,2.4-0.5,4.8-0.5,7.2
			l-11.8,3.3l2.8,14.3l12.1-1.4c0.5,1.4,1.2,2.7,1.8,4.1c2.9-1.4,6-2.9,9.3-4.3c-1.6-3-2.8-6.3-3.4-9.7c-3.7-19.2,8.8-37.8,28-41.5
			c9.3-1.8,18.7,0.1,26.5,5.4c7.8,5.3,13.2,13.3,15,22.6c0.3,1.6,0.5,3.2,0.6,4.9c2.1-0.2,4.1-0.4,6.2-0.6c1.7-0.1,3.3-0.3,4.8-0.4
			c-0.1-0.4-0.2-0.8-0.1-1.2c0.2-4.4,0.4-8.8,0.4-13.1L136.4,47.7z"/>
		<path fill="#F9B717" d="M123.2,58.7c-1.5-7.8-6-14.5-12.5-18.9c-5.2-3.5-11.2-5.2-17.3-5.1c-1.6,0-3.3,0.2-4.9,0.5
			C72.3,38.4,61.8,54,64.9,70c0.6,3,1.6,5.9,3.1,8.5c15.1-6.2,33.7-12.1,54.5-15.2c0.4-0.1,0.8-0.2,1.2-0.3
			C123.6,61.6,123.4,60.2,123.2,58.7z"/>
		<path fill="#FFFFFF" d="M113.8,35c-7.8-5.3-17.3-7.2-26.5-5.4c-19.2,3.7-31.7,22.3-28,41.5c0.7,3.4,1.8,6.6,3.4,9.7
			c1.7-0.8,3.5-1.5,5.3-2.2c-1.5-2.7-2.5-5.5-3.1-8.5C61.8,54,72.3,38.4,88.4,35.3c1.6-0.3,3.3-0.5,4.9-0.5
			c6.1-0.2,12.2,1.6,17.3,5.1c6.6,4.4,11,11.2,12.5,18.9c0.3,1.4,0.4,2.9,0.5,4.4c-0.4,0.1-0.8,0.2-1.2,0.3c2.3-0.3,4.5-0.6,6.9-0.9
			c-0.1-1.7-0.3-3.3-0.6-4.9C127,48.3,121.7,40.3,113.8,35z"/>
	</g>
	<path fill="#03455C" d="M170.6,53.5h-2.1c0-0.2-0.1-0.3-0.1-0.5c0,0,0,0,0,0v-1.7h2.3V53.5z M191.8,46.6v2.3h2.3v0h0v-2.3h0H191.8z
		 M220,53.5h2.3v-2.3H220V53.5z M178.7,40.4c0,0.5,0.4,0.9,0.8,0.9c0,0.4,0.3,0.8,0.8,0.8c0,0,0.1,0,0.1,0c0.4,0,0.8-0.3,0.9-0.8
		c0.1-0.5-0.1-0.9-0.4-1.3c-0.3-0.4-0.8-0.6-1.3-0.6C179.1,39.5,178.7,39.9,178.7,40.4z M226.9,52.9c-0.1,1.1-0.5,2.1-1.2,3
		c-0.6,0.8-1.3,1.4-2.2,1.8c-0.5,0.3-1.1,0.4-1.7,0.5h-1.9c0,0.1,0,0.3,0,0.4c0,0.2,0.1,0.2,0.2,0.2c0.7,0,1.4,0,2.1,0V61h-7v-2.3
		c0.1,0,0.1,0,0.2,0c0.7,0,1.3,0,2,0c0.2,0,0.2,0,0.2-0.2c0-0.1,0-0.3,0-0.4h-7.1c0,0.1,0,0.2,0,0.4c0,0.2,0,0.2,0.2,0.2
		c0.6,0,1.2,0,1.9,0h0.2V61h-7v-2.3c0.1,0,0.1,0,0.2,0c0.7,0,1.3,0,2,0c0.1,0,0.2,0,0.2-0.2c0-0.1,0-0.3,0-0.4h-4.8v2.9
		c-0.1,0-0.2,0-0.3,0c-2.8,0-5.5,0-8.3,0h-7.5c-0.1,0-0.2,0-0.3,0v-2.9h-4.8c0,0.1,0,0.3,0,0.4c0,0.1,0,0.2,0.2,0.2c0.7,0,1.3,0,2,0
		c0.1,0,0.1,0,0.2,0V61h-7v-2.3h0.2c0.6,0,1.2,0,1.9,0c0.2,0,0.2-0.1,0.2-0.2c0-0.1,0-0.2,0-0.4h-3.3v0H170v-2.2
		c5.6,0,11.3,0,16.9,0c0.2,0,0.3,0,0.3-0.1v-2.2c0-0.1-0.1-0.1-0.2-0.1c-4.2,0-8.4,0-12.6,0H173v-2.3h0.3h13.6c0.2,0,0.2,0,0.3-0.1
		V49c0-0.1-0.1-0.1-0.2-0.1c-5.7,0-14.9,0-20.5,0l-0.5-2.3l7.4,0l-1.7-3.4c-0.2-0.5-0.4-0.9-0.5-1.4c-0.2-1.2,0.2-2.4,0.9-3.2
		c0.8-0.9,2-1.5,3.2-1.5c0.4,0,0.7,0.1,1.1,0.2c-0.3-1-1-1.8-1.8-2.2c-0.2-0.1-0.4-0.3-0.4-0.5c-0.1-0.2-0.1-0.5,0-0.7
		c0.2-0.4,0.8-0.6,1.2-0.4c1,0.5,1.8,1.3,2.3,2.3c0.5-0.7,1.3-1.1,2.2-1.1h1.9c0.5,0,0.9,0.4,0.9,0.9c0,0.8-0.3,1.6-0.9,2.2
		c0.4,0.2,0.7,0.5,1,0.8c0.8,0.9,1.1,2.1,0.9,3.2c-0.1,0.5-0.5,0.8-1,0.7c-0.2,0-0.4-0.2-0.6-0.3c-0.1-0.2-0.2-0.4-0.2-0.7
		c0.1-0.7-0.1-1.3-0.5-1.8c-0.5-0.5-1.1-0.9-1.8-0.9c-0.4,0-0.8,0.1-1.1,0.4c-0.3,0.2-0.7,0.3-1,0.4l-0.1,0c-0.3,0-0.7-0.1-1-0.3
		c-0.3-0.2-0.7-0.4-1.1-0.4c-0.7,0-1.4,0.3-1.8,0.9c-0.4,0.5-0.6,1.2-0.5,1.8c0,0.3,0.1,0.6,0.3,0.9l2.1,4.2l1,0l0.4-0.5
		c0-0.1,0.1-0.1,0.1-0.1c0.4-0.3,1-0.2,1.3,0.1l0.4,0.6l1,0l1.8-3.5c0.2-0.4,0.8-0.6,1.2-0.4c0.4,0.2,0.6,0.8,0.4,1.2l-1.4,2.7
		l4.5,0v0c0.3,0,0.6,0,0.9,0c0.2,0,0.2,0,0.3-0.1v-15h0v-8.9l-12.5,0c0,0,0,0,0,0c-0.7,0-1.4,0-2.1,0h-2.9c-0.6,0-1.3,0-1.9,0l0-0.4
		v0.4c0,0-0.1,0-0.1,0h-3.9c0,0,0,0,0,0c-0.3,0-0.6,0-0.9,0h-3.4v1v0v2v4.7l0,9.1l0,0V62h-2.1V40l0,0c0-6.7,0-13.3,0-20v-0.2
		l0.1-0.1c1.7-1.3,3.3-2.6,5-4l0.9-0.7c0.1-0.1,0.2-0.2,0.4-0.3l0.4-0.4l-0.1-0.8l-0.4-0.1l-0.1,0c-0.1,0-0.2,0-0.4,0
		c-0.7,0-1.3,0-2,0l-0.1,0c-1,0-2,0-2.9,0H158c-0.3,0-0.7,0-1,0c-0.4,0-0.7,0-1.1,0h-0.1c-1.3,0-2.6,0-3.9,0l-0.2,0
		c-1.3,0-2.7,0-4,0h-0.1c-0.3,0-0.7,0-1,0c-0.3,0-0.6,0-0.9,0c-0.4,0-0.9,0-1.3,0l-1.8,0c-0.2,0-0.5,0-0.8,0.2c0,0-0.2,0.3-0.2,0.4
		v47.8h-2.1V13.5h0c0-0.9,0-1.8,0-2.7v-0.2l0.1-0.1c1.4-1.1,2.9-2.3,4.3-3.4c0.8-0.6,1.6-1.3,2.4-1.9l2.5-2c1.3-1,2.5-2,3.8-3
		l0.1-0.1l0.1,0c0.9,0,1.8,0,2.8,0c0.9,0,1.8,0,2.7,0h0.1l0.1,0.1c0.7,0.5,1.3,1,2,1.6l5.9,4.7c1,0.8,2.1,1.7,3.1,2.5
		c0.4,0.3,0.7,0.4,1.1,0.4c0.9,0,1.8,0,2.7,0h0.2c0.9,0,1.7,0,2.6,0c0.1,0,0.1,0,0.2,0l0.1,0l0.1,0c0.2,0.1,0.3,0.2,0.4,0.3l2.4,1.9
		c1.4,1.1,2.8,2.3,4.3,3.4c1.8,1.4,3.8,3.1,5.9,4.7l0.1,0.1l0,6c0-0.1,0-0.1,0-0.2h0h11.6c0,0.1,0,0.2,0,0.3c0,1.4,0,2.8,0,4.2
		c0,0.2,0,0.2,0.2,0.2c0.6,0,1.2,0,1.9,0h0.2v0c0,0,0,0,0,0v16.2c0,0.1,0.1,0.1,0.3,0.1c0.6,0,1.2,0,1.9,0c0.2,0,0.3-0.1,0.3-0.3
		c0-2.9,0-5.9,0-8.8v-0.3h11.8v0.3c0,2.9,0,5.8,0,8.7c0,0.4,0,0.3,0.3,0.3c1.2,0,2.4,0,3.6,0c0.9,0,1.7,0.3,2.5,0.7
		c1.1,0.6,2,1.5,2.5,2.7c0.2,0.5,0.4,0.9,0.4,1.5C226.9,52,227,52.4,226.9,52.9z M179,37h0.3c0.5,0,1-0.3,1.3-0.7h-0.7
		C179.5,36.3,179.1,36.6,179,37z M191.8,30.1c0,0.2,0.1,0.2,0.2,0.2c1.1,0,2.3,0,3.4,0c1.1,0,2.1,0,3.2,0c0.2,0,0.2,0,0.2-0.2
		c0-0.7,0-1.3,0-2c0-0.2-0.1-0.2-0.2-0.2c-1,0-2.1,0-3.1,0h-0.2h0h-0.2c-1,0-2,0-3.1,0c-0.2,0-0.2,0-0.2,0.2
		C191.8,28.7,191.8,29.4,191.8,30.1z M201.1,32.8c0-0.3,0-0.3-0.3-0.3h-11.2c-0.3,0-0.3,0-0.3,0.3v25v0.6c0,0.3,0,0.3,0.3,0.3h11.1
		c0.3,0,0.3,0,0.3-0.3v-0.6V32.8z M208.1,46.4c0,0.2,0,0.2,0.2,0.2c2.3,0,4.5,0,6.8,0c0.1,0,0.2,0,0.2-0.2c0-2.2,0-4.4,0-6.7
		c0-0.1,0-0.2-0.2-0.2c-0.7,0-1.4,0-2.1,0c-0.2,0-0.2,0-0.2,0.2c0,0.6,0,1.3,0,1.9v0.2h-2.3v-0.2c0-0.6,0-1.3,0-1.9
		c0-0.2,0-0.2-0.2-0.2c-0.7,0-1.4,0-2.1,0c-0.2,0-0.2,0.1-0.2,0.2C208.1,42,208.1,44.2,208.1,46.4z M224.6,52.6
		c0-0.8-0.2-1.6-0.7-2.3c-0.7-0.9-1.6-1.4-2.7-1.4c-5.9,0-11.7,0-17.6,0c-0.1,0-0.2,0-0.2,0.1v2.2c0,0.1,0.1,0.1,0.3,0.1h13.6h0.3
		v2.3h-1.3c-4.2,0-8.4,0-12.6,0c-0.1,0-0.2,0-0.2,0.1v2.2c0,0.1,0.1,0.1,0.3,0.1c5.8,0,11.5,0,17.3,0c0.5,0,0.9-0.1,1.3-0.2
		C223.8,55.2,224.6,54,224.6,52.6z M196.5,46.6v2.3h0v0h2.3v-2.3H196.5L196.5,46.6z M191.8,34.9h6.9v9.3h0h-6.9V34.9z M194.1,41.7
		c0,0.1,0,0.1,0,0.1c0,0,0,0,0,0c0,0,0,0,0,0c0,0,0.1,0,0.1,0c0.3,0,0.7,0,1,0s0.7,0,1,0c0,0,0.1,0,0.1,0c0,0,0,0,0,0c0,0,0,0,0,0
		c0,0,0-0.1,0-0.1c0-1.4,0-2.9,0-4.3c0-0.2-0.1-0.2-0.2-0.2c-0.3,0-0.6,0-1,0c-0.3,0-0.6,0-1,0c-0.2,0-0.2,0-0.2,0.2
		C194.1,38.9,194.1,40.3,194.1,41.7z"/>
</g>
</svg>
